<?xml version="1.0" encoding="UTF-8" standalone="no"?>
<!-- Created with Inkscape (http://www.inkscape.org/) -->

<svg
   xmlns:dc="http://purl.org/dc/elements/1.1/"
   xmlns:cc="http://creativecommons.org/ns#"
   xmlns:rdf="http://www.w3.org/1999/02/22-rdf-syntax-ns#"
   xmlns:svg="http://www.w3.org/2000/svg"
   xmlns="http://www.w3.org/2000/svg"
   xmlns:sodipodi="http://sodipodi.sourceforge.net/DTD/sodipodi-0.dtd"
   xmlns:inkscape="http://www.inkscape.org/namespaces/inkscape"
   width="51.362mm"
   height="35.924999mm"
   viewBox="0 0 51.362 35.924999"
   version="1.1"
   id="svg913"
   inkscape:version="0.92.3 (2405546, 2018-03-11)"
   sodipodi:docname="AdoptionIcon.svg">
  <defs
     id="defs907">
    <inkscape:path-effect
       effect="simplify"
       id="path-effect1524"
       is_visible="true"
       steps="1"
       threshold="0.000408163"
       smooth_angles="360"
       helper_size="0"
       simplify_individual_paths="false"
       simplify_just_coalesce="false"
       simplifyindividualpaths="false"
       simplifyJustCoalesce="false" />
    <inkscape:path-effect
       effect="simplify"
       id="path-effect1520"
       is_visible="true"
       steps="1"
       threshold="0.000408163"
       smooth_angles="360"
       helper_size="0"
       simplify_individual_paths="false"
       simplify_just_coalesce="false"
       simplifyindividualpaths="false"
       simplifyJustCoalesce="false" />
  </defs>
  <sodipodi:namedview
     id="base"
     pagecolor="#ffffff"
     bordercolor="#666666"
     borderopacity="1.0"
     inkscape:pageopacity="0.0"
     inkscape:pageshadow="2"
     inkscape:zoom="5.6568543"
     inkscape:cx="69.258032"
     inkscape:cy="73.75069"
     inkscape:document-units="mm"
     inkscape:current-layer="layer1"
     showgrid="false"
     inkscape:window-width="1920"
     inkscape:window-height="1017"
     inkscape:window-x="-8"
     inkscape:window-y="-8"
     inkscape:window-maximized="1"
     inkscape:lockguides="true" />
  <metadata
     id="metadata910">
    <rdf:RDF>
      <cc:Work
         rdf:about="">
        <dc:format>image/svg+xml</dc:format>
        <dc:type
           rdf:resource="http://purl.org/dc/dcmitype/StillImage" />
        <dc:title />
      </cc:Work>
    </rdf:RDF>
  </metadata>
  <g
     inkscape:label="Layer 1"
     inkscape:groupmode="layer"
     id="layer1"
     transform="translate(0,-261.075)">
    <g
       id="g1628">
      <path
         sodipodi:nodetypes="cc"
         inkscape:original-d="m 11.759859,289.45977 c 4.214871,2.41754 12.718013,2.80624 19.41242,1.87061"
         inkscape:path-effect="#path-effect1520"
         inkscape:connector-curvature="0"
         id="path1518"
         d="m 11.759859,289.45977 c 0.975148,0.5562 2.036494,0.94605 3.115137,1.24689 1.610748,0.44925 3.267577,0.71659 4.930054,0.88003 2.307369,0.22684 4.631668,0.26429 6.946712,0.15238 1.478499,-0.0715 2.954375,-0.2042 4.420517,-0.40869"
         style="fill:none;stroke:#ff5959;stroke-width:0.40000001;stroke-linecap:butt;stroke-linejoin:miter;stroke-miterlimit:4;stroke-dasharray:none;stroke-opacity:1" />
      <path
         sodipodi:nodetypes="cc"
         inkscape:original-d="m 31.169475,291.32938 c 8.725543,-1.14469 8.62313,-3.25112 15.099715,0.13221"
         inkscape:path-effect="#path-effect1524"
         inkscape:connector-curvature="0"
         id="path1522"
         d="m 31.169475,291.32938 c 1.573874,-0.20489 3.136434,-0.49094 4.685499,-0.83644 0.887658,-0.19798 1.768492,-0.42601 2.658754,-0.61229 0.784509,-0.16415 1.584978,-0.28173 2.388914,-0.25142 0.828916,0.0312 1.643556,0.2272 2.423138,0.50286 0.989637,0.34994 1.936703,0.80827 2.867813,1.2901 0,0 0.0756,0.0394 0.0756,0.0394"
         style="fill:none;stroke:#ff5959;stroke-width:0.40000001;stroke-linecap:butt;stroke-linejoin:miter;stroke-miterlimit:4;stroke-dasharray:none;stroke-opacity:1" />
      <path
         inkscape:connector-curvature="0"
         d="m 31.549149,291.23328 c -0.0096,0.003 -0.0191,0.004 -0.02864,0.006 -0.01254,0.003 -0.02498,0.005 -0.03735,0.008 -0.01011,0.003 -0.02,0.006 -0.03005,0.008 -0.01066,0.003 -0.02114,0.006 -0.03153,0.0101 -0.0087,0.003 -0.0173,0.006 -0.02577,0.01 -0.0067,0.003 -0.01328,0.005 -0.02008,0.007 -0.0044,0.003 -0.009,0.003 -0.01352,0.004 -0.01101,0.003 -0.02199,0.005 -0.03296,0.008 -0.007,0.003 -0.01376,0.004 -0.0208,0.006 -0.0088,0.003 -0.01781,0.004 -0.02684,0.006 -0.0085,0 -0.01704,0.003 -0.02558,0.003 -0.0093,0 -0.01863,0.003 -0.02795,0.005 -0.0092,0.003 -0.01852,0.003 -0.02767,0.006 -0.0051,0 -0.01003,0.003 -0.01513,0.004 -0.0031,0 -0.0062,0 -0.0093,0.003 -0.0013,0 -0.0024,0 -0.0037,0.003 -2.65e-4,1.6e-4 -0.0011,0 -7.94e-4,0 0.0041,-0.003 0.0082,-0.005 0.0123,-0.007 0,0 -0.01431,0.006 -0.01431,0.006 v 0 c 0.0063,-0.004 0.01172,-0.008 0.0186,-0.01 0.0031,0 0.0062,-0.003 0.0093,-0.003 0.005,0 0.0099,-0.003 0.0149,-0.004 0.0091,-0.003 0.01834,-0.004 0.02748,-0.006 0.0094,-0.003 0.01873,-0.003 0.02818,-0.005 0.0085,0 0.01699,-0.003 0.02543,-0.003 0.009,-0.003 0.01807,-0.003 0.02687,-0.006 0.007,-0.003 0.01381,-0.004 0.02077,-0.006 0.01085,-0.003 0.02172,-0.005 0.03257,-0.008 0.01151,-0.003 0.02281,-0.007 0.03382,-0.0114 0.0084,-0.004 0.01707,-0.007 0.02569,-0.01 0.01045,-0.004 0.02098,-0.007 0.03168,-0.0101 0.01,-0.003 0.01984,-0.006 0.02992,-0.008 0.01233,-0.003 0.02477,-0.006 0.03726,-0.008 0.0098,-0.003 0.01958,-0.005 0.02938,-0.007 0,0 -0.0122,0.009 -0.0122,0.009 z"
         id="path1534"
         style="opacity:1;fill:#ffffff;fill-opacity:1;stroke:#ff5959;stroke-width:0.2;stroke-linejoin:bevel;stroke-miterlimit:4;stroke-dasharray:none;stroke-opacity:1" />
      <path
         inkscape:connector-curvature="0"
         d="m 31.463789,291.27694 c -0.0094,0.003 -0.01889,0.006 -0.02845,0.009 -0.0027,0 -0.0053,0 -0.008,0.003 -0.0069,0.003 -0.01034,0.003 -0.0173,0.004 -0.0086,0.003 -0.01722,0.003 -0.02585,0.005 -0.01127,0.003 -0.02267,0.003 -0.03391,0.006 -0.0067,0 -0.008,0.003 -0.01453,0.003 -0.0089,0.003 -0.01791,0.005 -0.02643,0.009 -5.29e-4,0 -0.0013,0 -0.0019,0 0,0 0.01191,-0.009 0.01191,-0.009 v 0 c 5.29e-4,0 0.0013,0 0.0019,0 0.0085,-0.003 0.0172,-0.006 0.02598,-0.008 0.01593,-0.004 0.03213,-0.006 0.04829,-0.009 0.01725,-0.003 0.03444,-0.006 0.05127,-0.0111 0.0098,-0.003 0.01955,-0.006 0.02916,-0.01 0,0 -0.01209,0.009 -0.01209,0.009 z"
         id="path1540"
         style="opacity:1;fill:#ffffff;fill-opacity:1;stroke:#ff5959;stroke-width:0.2;stroke-linejoin:bevel;stroke-miterlimit:4;stroke-dasharray:none;stroke-opacity:1" />
      <path
         inkscape:connector-curvature="0"
         d="m 31.385933,291.26516 c -0.01204,0.003 -0.02402,0.003 -0.03608,0.005 -0.01199,0 -0.02394,0.003 -0.03586,0.004 -0.0051,0 -0.01,0.003 -0.01479,0.004 -0.0053,0.003 -0.0033,0.003 0.01056,-0.006 7.94e-4,0 -0.0013,0 -0.0021,0.003 0,0 -0.01418,0.006 -0.01418,0.006 v 0 c 0.005,-0.005 0.0114,-0.008 0.0177,-0.0106 0.0048,-0.003 0.0096,-0.003 0.01463,-0.004 0.0118,-0.003 0.02365,-0.003 0.03547,-0.003 0.01233,-0.003 0.02463,-0.003 0.03689,-0.005 0,0 -0.01228,0.009 -0.01228,0.009 z"
         id="path1542"
         style="opacity:1;fill:#ffffff;fill-opacity:1;stroke:#ff5959;stroke-width:0.2;stroke-linejoin:bevel;stroke-miterlimit:4;stroke-dasharray:none;stroke-opacity:1" />
      <path
         inkscape:connector-curvature="0"
         d="m 31.373873,291.26556 c -0.0079,0.003 -0.01572,0.004 -0.02352,0.006 -0.0076,0.003 -0.01513,0.004 -0.02265,0.006 -0.0052,0 -0.01032,0.003 -0.01548,0.003 -0.0033,0 -0.0068,0.003 -0.01008,0.003 -0.0013,0 -0.0026,0 -0.0039,0 0,0 0.01238,-0.009 0.01238,-0.009 v 0 c 0.0013,-2.1e-4 0.0024,0 0.0037,0 0.0033,0 0.0067,-0.003 0.0099,-0.003 0.0051,0 0.01027,-0.003 0.01537,-0.003 0.0075,-0.003 0.01495,-0.004 0.02241,-0.006 0.008,-0.003 0.01603,-0.004 0.02394,-0.006 0,0 -0.01209,0.009 -0.01209,0.009 z"
         id="path1544"
         style="opacity:1;fill:#ffffff;fill-opacity:1;stroke:#ff5959;stroke-width:0.2;stroke-linejoin:bevel;stroke-miterlimit:4;stroke-dasharray:none;stroke-opacity:1" />
      <path
         inkscape:connector-curvature="0"
         d="m 31.322441,291.28477 c -5.29e-4,-0.004 -0.0016,-0.007 -0.0024,-0.0111 -7.94e-4,-0.004 -0.0024,-0.007 -0.0038,-0.0111 0,0 0.01328,-0.007 0.01328,-0.007 v 0 c 0.0016,0.004 0.0029,0.007 0.0039,0.0114 7.93e-4,0.004 0.0016,0.007 0.0024,0.0111 0,0 -0.01357,0.007 -0.01357,0.007 z"
         id="path1550"
         style="opacity:1;fill:#ffffff;fill-opacity:1;stroke:#ff5959;stroke-width:0.2;stroke-linejoin:bevel;stroke-miterlimit:4;stroke-dasharray:none;stroke-opacity:1" />
      <path
         inkscape:connector-curvature="0"
         d="m 31.320115,291.27392 c -0.0011,-0.006 -0.0028,-0.0116 -0.0044,-0.0172 -7.94e-4,-0.003 -0.0016,-0.006 -0.0024,-0.009 -2.64e-4,0 -5.29e-4,-0.003 -7.93e-4,-0.003 0,0 0.01344,-0.007 0.01344,-0.007 v 0 c 2.65e-4,0 5.3e-4,0.003 7.94e-4,0.003 7.94e-4,0.003 0.0016,0.006 0.0024,0.009 0.0013,0.006 0.0029,0.0114 0.0044,0.0172 0,0 -0.01336,0.007 -0.01336,0.007 z"
         id="path1552"
         style="opacity:1;fill:#ffffff;fill-opacity:1;stroke:#ff5959;stroke-width:0.2;stroke-linejoin:bevel;stroke-miterlimit:4;stroke-dasharray:none;stroke-opacity:1" />
      <path
         inkscape:connector-curvature="0"
         d="m 31.314173,291.2486 c -5.3e-4,-0.003 -0.0011,-0.006 -0.0016,-0.008 -2.22e-4,0 -5.29e-4,-0.003 -0.0011,-0.003 0,0 0.01341,-0.007 0.01341,-0.007 v 0 c 2.65e-4,0 7.94e-4,0.003 0.0011,0.004 5.29e-4,0.003 0.0011,0.006 0.0019,0.009 0,0 -0.01357,0.007 -0.01357,0.007 z"
         id="path1554"
         style="opacity:1;fill:#ffffff;fill-opacity:1;stroke:#ff5959;stroke-width:0.2;stroke-linejoin:bevel;stroke-miterlimit:4;stroke-dasharray:none;stroke-opacity:1" />
      <path
         inkscape:connector-curvature="0"
         d="m 31.333162,291.27808 c -0.0042,-0.008 -0.0081,-0.0154 -0.01122,-0.0236 -0.0013,-0.004 -0.0028,-0.008 -0.004,-0.0116 0,0 0.01307,-0.007 0.01307,-0.007 v 0 c 0.0011,0.004 0.0024,0.008 0.0039,0.0116 0.003,0.008 0.0067,0.0159 0.01146,0.023 0,0 -0.01315,0.008 -0.01315,0.008 z"
         id="path1558"
         style="opacity:1;fill:#ffffff;fill-opacity:1;stroke:#ff5959;stroke-width:0.2;stroke-linejoin:bevel;stroke-miterlimit:4;stroke-dasharray:none;stroke-opacity:1" />
      <path
         inkscape:connector-curvature="0"
         d="m 31.318229,291.24662 c -1.35e-4,0 -2.65e-4,0 -5.29e-4,-0.003 0,0 0.01336,-0.007 0.01336,-0.007 v 0 c 1.77e-4,0 2.65e-4,0 5.29e-4,0.003 0,0 -0.01349,0.007 -0.01349,0.007 z"
         id="path1568"
         style="opacity:1;fill:#ffffff;fill-opacity:1;stroke:#ff5959;stroke-width:0.2;stroke-linejoin:bevel;stroke-miterlimit:4;stroke-dasharray:none;stroke-opacity:1" />
      <path
         inkscape:connector-curvature="0"
         d="m 31.362202,291.24881 c -0.0092,0.003 -0.01831,0.004 -0.02738,0.007 -0.0091,0.003 -0.01807,0.006 -0.02718,0.009 -0.0033,0 -0.01058,0.003 -0.01397,0.004 -0.01169,0.003 -0.02368,0.006 -0.03567,0.008 -0.0011,1.9e-4 -0.0024,0 -0.0035,0 0,0 0.01193,-0.009 0.01193,-0.009 v 0 c 0.0011,-1.5e-4 0.0024,0 0.0034,0 0.01185,-0.003 0.02365,-0.004 0.03519,-0.008 0.01386,-0.004 0.02754,-0.008 0.04129,-0.013 0.0093,-0.003 0.01863,-0.005 0.02808,-0.007 0,0 -0.0122,0.009 -0.0122,0.009 z"
         id="path1572"
         style="opacity:1;fill:#ffffff;fill-opacity:1;stroke:#ff5959;stroke-width:0.01;stroke-linejoin:bevel;stroke-miterlimit:4;stroke-dasharray:none;stroke-opacity:1" />
      <path
         inkscape:connector-curvature="0"
         d="m 31.32447,291.23834 c 0.0074,0.003 0.01556,0.004 0.02352,0.004 0.0036,-2e-5 0.0073,1.1e-4 0.01079,0 5.29e-4,-1.3e-4 0.0021,0 0.0016,0 -0.01408,0.008 -0.0089,0.004 -0.01289,0.007 -0.0074,-0.003 -0.01535,-0.003 -0.02307,-0.003 -0.0036,-1.4e-4 -0.0039,-1.6e-4 -0.0072,-2.4e-4 -7.94e-4,-3e-5 -0.0013,-3e-5 -0.0021,-3e-5 -2.65e-4,-2e-5 -0.0011,1.3e-4 -7.94e-4,-2e-5 0.01267,-0.01 0.0078,-0.009 0.01482,-0.009 0.0079,-1.1e-4 0.01569,0 0.02355,0 2.3e-4,-8e-5 7.94e-4,0 7.94e-4,-1.9e-4 -0.0045,0.003 -0.0088,0.006 -0.01368,0.009 -0.0011,0 -0.0021,-2.2e-4 -0.0033,0 -0.0016,-1.4e-4 -0.0032,-2.2e-4 -0.0048,0 -0.009,0 -0.0037,-2.7e-4 -0.01243,0 -0.0083,0 -0.01426,0.003 0.0085,-0.009 0.0011,0 0.0024,0 0.0037,0 0.004,0 0.0063,0 0.01045,0 0.0041,2.4e-4 0.0083,0 0.01238,0 0.0011,3e-5 0.0024,-8e-5 0.0034,1.9e-4 2.65e-4,0 5.3e-4,0 7.94e-4,0.003 0,0 -0.01445,0.006 -0.01445,0.006 v 0 c 2.65e-4,0 5.29e-4,0 7.94e-4,0.003 -7.94e-4,-3e-5 -0.0021,-2.1e-4 -0.0029,-2.7e-4 -0.004,0 -0.008,0 -0.01204,0 -0.0059,0 -0.005,0 -0.01072,0 -0.0013,-8e-5 -0.0048,0 -0.004,0 0.0078,-0.0106 0.0079,-0.009 0.01572,-0.008 0.008,0 0.0041,0 0.01257,0 0.0016,5e-5 0.0034,1e-4 0.005,1.8e-4 0.0013,5e-5 0.0044,0 0.0037,2.1e-4 -0.008,0.01 -0.0066,0.0101 -0.01177,0.009 -0.0079,0 -0.01572,0 -0.0236,0 -5.29e-4,5e-5 -0.0024,0 -0.0019,10e-5 0.0037,-0.003 0.0079,-0.006 0.01191,-0.009 1.8e-4,-1.3e-4 5.29e-4,5e-5 5.29e-4,8e-5 5.29e-4,5e-5 0.0013,10e-5 0.0019,1.6e-4 7.94e-4,5e-5 0.0068,0 0.007,0 0.0032,2.1e-4 0.007,0 0.01024,0 0.0039,0 0.0081,0 0.01191,0.003 7.94e-4,2.4e-4 0.0013,0 0.0021,0 5.29e-4,0 0.0019,0 0.0013,0.003 -0.01106,0.009 -0.01389,0.009 -0.0258,0.009 -0.0083,0 -0.01667,-0.003 -0.02439,-0.005 0,0 0.01281,-0.008 0.01281,-0.008 z"
         id="path1574"
         style="opacity:1;fill:#ffffff;fill-opacity:1;stroke:#ff5959;stroke-width:0.01;stroke-linejoin:bevel;stroke-miterlimit:4;stroke-dasharray:none;stroke-opacity:1" />
      <path
         inkscape:connector-curvature="0"
         d="m 31.266138,291.1656 c 0.0024,-0.003 0.0045,-0.004 0.0068,-0.005 0.0062,-0.004 0.01193,-0.009 0.01913,-0.0106 0.0019,-1.4e-4 0.0035,0 0.0053,-0.003 0.0021,0 0.0045,0 0.0068,0 0.0021,0 0.0011,0 0.003,0 0,0 -0.01233,0.009 -0.01233,0.009 v 0 c -0.0021,2e-5 -0.0011,0 -0.003,2e-5 -0.0021,8e-5 -0.0045,1.3e-4 -0.0066,0 -0.0019,0 -0.0035,0.003 -0.0054,0.003 -0.0049,0.003 -0.01148,0.006 0.0104,-0.006 2.64e-4,-1.9e-4 -5.3e-4,0 -0.0011,0 -0.0021,0.003 2.2e-4,2e-5 -0.0021,0 -0.0024,0.003 -0.0044,0.004 -0.0068,0.005 0,0 -0.01423,0.006 -0.01423,0.006 z"
         id="path1576"
         style="opacity:1;fill:#ffffff;fill-opacity:1;stroke:#ff5959;stroke-width:0.01;stroke-linejoin:bevel;stroke-miterlimit:4;stroke-dasharray:none;stroke-opacity:1" />
      <path
         inkscape:connector-curvature="0"
         d="m 31.307635,291.15629 c -0.0031,0 -0.0063,0 -0.0094,0 -0.0024,0 -0.0046,0 -0.007,0 -0.0019,0 -0.0036,0 -0.0054,0 -0.0019,0 -0.0039,0.003 -0.0057,0.003 -0.0019,0 -2.64e-4,8e-5 -0.0019,0 -2.65e-4,1.6e-4 -0.0011,0 -7.94e-4,0 0.02426,-0.014 0.01455,-0.01 0.01117,-0.006 -7.94e-4,0 -0.0019,0.003 -0.0026,0.003 0,0 -0.01418,0.006 -0.01418,0.006 v 0 c 7.94e-4,0 0.0016,-0.003 0.0026,-0.003 0.004,-0.006 0.01151,-0.008 0.01773,-0.0111 0.0019,0 0.0038,-0.003 0.0058,-0.003 0.0019,0 0.0038,0 0.0058,0 0.0024,1.8e-4 0.0047,0 0.007,0 0.0031,0 0.0063,0 0.0095,0 0,0 -0.01252,0.009 -0.01252,0.009 z"
         id="path1580"
         style="opacity:1;fill:#ffffff;fill-opacity:1;stroke:#ff5959;stroke-width:0.01;stroke-linejoin:bevel;stroke-miterlimit:4;stroke-dasharray:none;stroke-opacity:1" />
      <path
         inkscape:connector-curvature="0"
         d="m 31.284505,291.15494 c -0.02291,0.0135 -0.01069,0.006 -0.0056,0.003 0.02819,-0.0164 0.01013,-0.006 0.0019,0 -0.0021,0 0.0019,0 0.0021,-0.003 0.0046,-0.003 0.0092,-0.005 0.01384,-0.008 0.0019,0 0.0034,0 0.0051,-0.003 0.0019,0 0.0041,0 0.0061,0 0.0019,0 0.0038,0 0.0058,0 0,0 -0.01236,0.009 -0.01236,0.009 v 0 c -0.0019,1.6e-4 -0.0038,0 -0.0057,0 -0.0021,2.7e-4 -0.004,0 -0.0059,0.003 -0.0016,0 -0.0034,0 -0.005,0.003 0.01762,-0.0103 0.01579,-0.01 0.01109,-0.006 -0.008,0.006 -0.02851,0.0159 -0.0028,0.003 -0.0068,0.004 -0.01328,0.009 -0.02061,0.0124 0,0 0.01193,-0.01 0.01193,-0.01 z"
         id="path1582"
         style="opacity:1;fill:#ffffff;fill-opacity:1;stroke:#ff5959;stroke-width:0.01;stroke-linejoin:bevel;stroke-miterlimit:4;stroke-dasharray:none;stroke-opacity:1" />
      <path
         inkscape:connector-curvature="0"
         d="m 31.306555,291.15049 c -0.0026,-0.003 -0.0055,-0.003 -0.0085,-0.003 -0.0024,0 -0.0047,0 -0.0071,0 -0.0024,3e-5 -0.0046,3e-5 -0.0069,6e-5 -0.0021,1.5e-4 -0.0038,0 -0.0057,0.003 -2.65e-4,1.3e-4 -0.0011,0 -7.94e-4,0 0.0041,-0.003 0.0083,-0.005 0.01241,-0.007 2.59e-4,-1.6e-4 -5.29e-4,0 -7.94e-4,0 -0.0046,0.003 -0.0093,0.005 -0.01392,0.008 -0.0041,0.003 0.0083,-0.005 0.01243,-0.007 2.41e-4,-1.3e-4 -5.29e-4,0 -7.93e-4,0 -0.0046,0.003 -0.0093,0.005 -0.01392,0.008 -5.3e-4,0 -0.0021,0 -0.0016,0 0.02003,-0.0116 0.01606,-0.009 0.01172,-0.007 0,0 -0.01423,0.006 -0.01423,0.006 v 0 c 2.02e-4,-2.4e-4 2.65e-4,0 5.3e-4,0 0.0046,-0.003 0.0093,-0.005 0.01397,-0.008 5.29e-4,0 0.0021,0 0.0016,0 -0.0041,0.003 -0.0083,0.005 -0.01243,0.007 0.0048,-0.003 0.01159,-0.007 0.01455,-0.008 0.0041,-0.003 -0.0082,0.005 -0.01236,0.007 -2.6e-4,1.6e-4 5.29e-4,0 7.94e-4,0 0.0047,-0.003 0.0093,-0.005 0.01397,-0.008 2.64e-4,-1.6e-4 5.29e-4,-2.1e-4 7.93e-4,0 0.0019,0 0.0039,0 0.0059,0 0.0024,0 0.0046,-3e-5 0.0069,0 0.0024,3e-5 0.0048,1.1e-4 0.0072,0 0.0031,0 0.006,0.003 0.0088,0.003 0,0 -0.01286,0.008 -0.01286,0.008 z"
         id="path1584"
         style="opacity:1;fill:#ffffff;fill-opacity:1;stroke:#ff5959;stroke-width:0.01;stroke-linejoin:bevel;stroke-miterlimit:4;stroke-dasharray:none;stroke-opacity:1" />
      <path
         inkscape:connector-curvature="0"
         d="m 31.28451,291.15639 c 7.94e-4,-0.003 0.0013,-0.003 0.0024,-0.005 0,0 0.01402,-0.006 0.01402,-0.006 v 0 c -0.0011,0.003 -0.0019,0.003 -0.0024,0.005 0,0 -0.01394,0.006 -0.01394,0.006 z"
         id="path1588"
         style="opacity:1;fill:#ffffff;fill-opacity:1;stroke:#ff5959;stroke-width:0.01;stroke-linejoin:bevel;stroke-miterlimit:4;stroke-dasharray:none;stroke-opacity:1" />
      <path
         inkscape:connector-curvature="0"
         d="m 31.284603,291.15422 c 0.0016,-0.003 0.0032,-0.005 0.0049,-0.007 0,0 0.014,-0.006 0.014,-0.006 v 0 c -0.0019,0.003 -0.0033,0.005 -0.0048,0.007 0,0 -0.014,0.006 -0.014,0.006 z"
         id="path1592"
         style="opacity:1;fill:#ffffff;fill-opacity:1;stroke:#ff5959;stroke-width:0.01;stroke-linejoin:bevel;stroke-miterlimit:4;stroke-dasharray:none;stroke-opacity:1" />
      <path
         inkscape:connector-curvature="0"
         d="m 31.291323,291.1519 c -0.0019,0 -0.0011,0 -0.0031,0 0,0 0.01193,-0.01 0.01193,-0.01 v 0 c 0.0021,0 0.0011,0 0.0032,-0.003 0,0 -0.01207,0.01 -0.01207,0.01 z"
         id="path1596"
         style="opacity:1;fill:#ffffff;fill-opacity:1;stroke:#ff5959;stroke-width:0.01;stroke-linejoin:bevel;stroke-miterlimit:4;stroke-dasharray:none;stroke-opacity:1" />
      <path
         inkscape:connector-curvature="0"
         d="m 31.289088,291.14925 c -0.0016,0 -0.0032,0 -0.0047,0 -0.0048,0.003 -0.01426,0.008 0.0087,-0.005 -0.0013,0 -0.0024,0.003 -0.0036,0.003 0,0 -0.01418,0.006 -0.01418,0.006 v 0 c 0.0011,0 0.0024,-0.003 0.0036,-0.003 0.0075,-0.004 0.01397,-0.01 0.02265,-0.0106 0,0 -0.01241,0.009 -0.01241,0.009 z"
         id="path1598"
         style="opacity:1;fill:#ffffff;fill-opacity:1;stroke:#ff5959;stroke-width:0.01;stroke-linejoin:bevel;stroke-miterlimit:4;stroke-dasharray:none;stroke-opacity:1" />
      <path
         inkscape:connector-curvature="0"
         d="m 31.282886,291.14822 c -0.0031,-2.1e-4 -0.006,-3e-5 -0.0086,0.003 0.02273,-0.0127 0.0137,-0.009 0.01045,-0.005 -5.29e-4,0 -0.0013,0.003 -0.0019,0.003 0,0 -0.01402,0.006 -0.01402,0.006 v 0 c 0.0044,-0.007 0.0065,-0.007 0.01725,-0.0132 0.0029,0 0.006,0 0.0091,0 0,0 -0.01241,0.009 -0.01241,0.009 z"
         id="path1600"
         style="opacity:1;fill:#ffffff;fill-opacity:1;stroke:#ff5959;stroke-width:0.01;stroke-linejoin:bevel;stroke-miterlimit:4;stroke-dasharray:none;stroke-opacity:1" />
      <path
         inkscape:connector-curvature="0"
         d="m 31.286963,291.1501 c -0.0031,-2.7e-4 -0.0053,2.1e-4 -0.0078,0.003 0.02432,-0.013 0.01334,-0.009 0.01021,-0.005 -5.29e-4,0 -0.0011,0.003 -0.0016,0.003 -1.25e-4,2.6e-4 -2.52e-4,0 -2.65e-4,0 0,0 -0.01394,0.006 -0.01394,0.006 v 0 c 1.05e-4,0 2.14e-4,0 2.64e-4,0 0.0037,-0.008 0.007,-0.008 0.0172,-0.0132 0.0027,0 0.0055,-0.003 0.0085,0 0,0 -0.01252,0.009 -0.01252,0.009 z"
         id="path1602"
         style="opacity:1;fill:#ffffff;fill-opacity:1;stroke:#ff5959;stroke-width:0.01;stroke-linejoin:bevel;stroke-miterlimit:4;stroke-dasharray:none;stroke-opacity:1" />
      <path
         inkscape:connector-curvature="0"
         d="m 31.290119,291.14925 c -5.29e-4,5e-5 -0.0011,8e-5 -0.0013,1.6e-4 -7.93e-4,1.3e-4 -0.0024,0 -0.0031,0 -5.29e-4,2.4e-4 -0.0016,0 -0.0013,0 0.01175,-0.006 0.01537,-0.01 0.01103,-0.006 -0.0016,0.003 -0.0021,0.003 -0.0024,0.005 0,0 -0.01373,0.007 -0.01373,0.007 v 0 c 1.83e-4,-0.003 5.29e-4,-0.005 0.0021,-0.006 0.0052,-0.005 0.01339,-0.0106 0.02135,-0.0109 0,0 -0.01241,0.009 -0.01241,0.009 z"
         id="path1604"
         style="opacity:1;fill:#ffffff;fill-opacity:1;stroke:#ff5959;stroke-width:0.01;stroke-linejoin:bevel;stroke-miterlimit:4;stroke-dasharray:none;stroke-opacity:1" />
      <circle
         r="12.288372"
         cy="278.57468"
         cx="17.5"
         id="path1458"
         style="opacity:1;fill:none;fill-opacity:1;stroke:#ff5959;stroke-width:0.42325675;stroke-linejoin:bevel;stroke-miterlimit:4;stroke-dasharray:none;stroke-opacity:1" />
      <path
         sodipodi:nodetypes="cc"
         inkscape:connector-curvature="0"
         id="path1462"
         d="m 10.721829,268.34462 c 15.855603,1.3266 17.643009,13.62292 18.387259,14.31915"
         style="fill:none;stroke:#ff5959;stroke-width:0.32389238px;stroke-linecap:butt;stroke-linejoin:miter;stroke-opacity:1" />
      <path
         sodipodi:nodetypes="cc"
         inkscape:connector-curvature="0"
         id="path1462-7"
         d="m 8.7994388,270.03428 c 16.4271372,1.3874 18.2789722,14.24728 19.0500492,14.97542"
         style="fill:none;stroke:#ff5959;stroke-width:0.33714846px;stroke-linecap:butt;stroke-linejoin:miter;stroke-opacity:1" />
      <path
         sodipodi:nodetypes="cc"
         inkscape:connector-curvature="0"
         id="path1462-9"
         d="M 7.1858911,285.26566 C 8.5125011,269.41006 20.808811,267.62265 21.505051,266.8784"
         style="fill:none;stroke:#ff5959;stroke-width:0.32389238px;stroke-linecap:butt;stroke-linejoin:miter;stroke-opacity:1" />
      <path
         sodipodi:nodetypes="cc"
         inkscape:connector-curvature="0"
         id="path1462-7-6"
         d="M 8.6879758,287.07083 C 10.075376,270.6437 22.935256,268.79186 23.663396,268.02079"
         style="fill:none;stroke:#ff5959;stroke-width:0.33714849px;stroke-linecap:butt;stroke-linejoin:miter;stroke-opacity:1" />
      <path
         sodipodi:nodetypes="cc"
         inkscape:connector-curvature="0"
         id="path1462-7-6-9"
         d="m 11.759859,289.45977 c 1.3874,-16.42713 14.24728,-18.27897 14.975421,-19.05004"
         style="fill:none;stroke:#ff5959;stroke-width:0.33714852px;stroke-linecap:butt;stroke-linejoin:miter;stroke-opacity:1" />
      <path
         sodipodi:nodetypes="cc"
         inkscape:connector-curvature="0"
         id="path1462-7-6-1"
         d="m 13.62847,290.37217 c 1.321096,-15.97561 13.566397,-17.77655 14.25974,-18.52643"
         style="fill:none;stroke:#ff5959;stroke-width:0.32444078px;stroke-linecap:butt;stroke-linejoin:miter;stroke-opacity:1" />
    </g>
  </g>
</svg>
