<?xml version="1.0" encoding="UTF-8" standalone="no"?>
<!-- Created with Inkscape (http://www.inkscape.org/) -->

<svg
   xmlns:dc="http://purl.org/dc/elements/1.1/"
   xmlns:cc="http://creativecommons.org/ns#"
   xmlns:rdf="http://www.w3.org/1999/02/22-rdf-syntax-ns#"
   xmlns:svg="http://www.w3.org/2000/svg"
   xmlns="http://www.w3.org/2000/svg"
   xmlns:sodipodi="http://sodipodi.sourceforge.net/DTD/sodipodi-0.dtd"
   xmlns:inkscape="http://www.inkscape.org/namespaces/inkscape"
   width="75mm"
   height="76.699997mm"
   viewBox="0 0 75 76.699996"
   version="1.1"
   id="svg5404"
   inkscape:version="0.92.3 (2405546, 2018-03-11)"
   sodipodi:docname="Foster House Icon.svg">
  <defs
     id="defs5398" />
  <sodipodi:namedview
     id="base"
     pagecolor="#ffffff"
     bordercolor="#666666"
     borderopacity="1.0"
     inkscape:pageopacity="0.0"
     inkscape:pageshadow="2"
     inkscape:zoom="2.8284271"
     inkscape:cx="118.78258"
     inkscape:cy="142.03669"
     inkscape:document-units="mm"
     inkscape:current-layer="layer1"
     showgrid="false"
     inkscape:window-width="1920"
     inkscape:window-height="1017"
     inkscape:window-x="-8"
     inkscape:window-y="-8"
     inkscape:window-maximized="1"
     inkscape:snap-smooth-nodes="false"
     inkscape:snap-object-midpoints="true" />
  <metadata
     id="metadata5401">
    <rdf:RDF>
      <cc:Work
         rdf:about="">
        <dc:format>image/svg+xml</dc:format>
        <dc:type
           rdf:resource="http://purl.org/dc/dcmitype/StillImage" />
        <dc:title></dc:title>
      </cc:Work>
    </rdf:RDF>
  </metadata>
  <g
     inkscape:label="Layer 1"
     inkscape:groupmode="layer"
     id="layer1"
     transform="translate(0,-220.3)">
    <rect
       style="opacity:1;fill:#ff5959;fill-opacity:1;stroke-width:0.26458332"
       id="rect5406"
       width="75"
       height="50"
       x="1.1e-005"
       y="247"
       ry="0" />
    <rect
       style="opacity:1;fill:#ff5959;fill-opacity:1;stroke-width:0;stroke-miterlimit:4;stroke-dasharray:none"
       id="rect6125"
       width="7.7508163"
       height="18.708866"
       x="50.859341"
       y="225.56093" />
    <path
       sodipodi:type="star"
       style="opacity:1;fill:#ff5959;fill-opacity:1;stroke-width:0.07384119;stroke-miterlimit:4;stroke-dasharray:none;stroke:#000000;stroke-opacity:1"
       id="path6119"
       sodipodi:sides="3"
       sodipodi:cx="9.6387129"
       sodipodi:cy="222.07202"
       sodipodi:r1="20.460745"
       sodipodi:r2="10.230372"
       sodipodi:arg1="-0.29489751"
       sodipodi:arg2="0.75230004"
       inkscape:flatsided="true"
       inkscape:rounded="0"
       inkscape:randomized="0"
       d="M 29.216207,216.12527 5.0000002,242 -5.3000685,208.09079 Z"
       inkscape:transform-center-x="0.049820543"
       inkscape:transform-center-y="-4.432053"
       transform="matrix(1.4425623,0.63266498,-1.5484845,0.59223914,367.52044,100.5148)" />
    <path
       style="opacity:1;fill:#ff5959;fill-opacity:1;stroke-width:0;stroke-miterlimit:4;stroke-dasharray:none"
       id="path6123"
       d="m 18.943669,245.86269 c 0.02024,1.1814 -0.179736,2.34662 -0.28274,3.51856 0.01772,0.0458 0.01239,0.1647 0.05317,0.13736 0.05553,-0.0372 0.0968,-0.22545 0.03618,-0.19726 -1.079138,0.50191 -2.076337,1.17163 -3.165019,1.65249 -0.196176,0.0866 0.311134,-0.29588 0.454559,-0.45532 0.454547,-0.50531 0.711461,-0.88024 1.122211,-1.43286 1.120058,-1.48487 2.05109,-3.10866 3.228262,-4.54995 1.17652,-1.2093 2.486956,-1.66602 4.258026,-2.38909 0.246362,-0.10058 0.507654,0.99405 0.539142,1.12496 0.169743,0.84252 0.09437,1.70989 0.269973,2.5493 0.144004,0.62544 0.338301,0.95737 1.023101,0.82884 1.233914,-0.78949 2.592964,-1.32831 3.962866,-1.8286 1.40295,-0.41342 2.851126,-0.93661 4.313131,-1.10497 0.700572,-0.0807 0.89892,-0.019 1.558886,0.0651 1.121169,0.32188 1.431361,1.2621 1.5905,2.3068 0.09239,0.41435 0.02792,1.16946 0.536818,1.35603 0.08042,0.0295 0.169522,0.0246 0.254284,0.0369 1.135546,-0.47676 2.268323,-0.95834 3.418564,-1.39913 0.921044,-0.23729 1.910183,-0.64748 2.868541,-0.41798 0.636908,0.37895 0.544309,1.11666 0.803257,1.71467 0.05796,0.059 0.104904,0.13134 0.173871,0.17699 0.592727,0.39226 2.459246,0.35657 3.128933,0.38135 2.163056,0.0828 4.333515,-0.0814 6.477759,0.26613 0.887955,0.2423 1.689166,0.70018 2.489187,1.14187 0.0697,0.0743 0.39733,0.37317 0.195861,0.50055 -1.195655,0.75592 -2.472992,1.37982 -3.757235,1.97289 -0.159112,0.0735 -0.350498,0.004 -0.525756,0.005 -0.921435,0.005 -0.734142,0.002 -1.822,-0.0101 -2.963656,0.014 -5.925034,-0.0493 -8.887042,-0.13847 -1.638522,-0.005 -3.268712,-0.15954 -4.882345,-0.43349 -1.954589,-0.3156 -3.935556,-0.39774 -5.9114,-0.45555 -1.405565,0.0145 -2.801655,-0.12282 -4.177488,-0.40251 -0.583012,-0.13965 -1.204368,-0.16859 -1.735119,-0.47348 -0.178573,-0.10258 -0.339527,-0.23317 -0.509363,-0.34964 -0.356441,-0.39859 -0.745008,-0.54445 -1.260184,-0.60627 -1.00467,-0.17595 -2.021945,-0.23666 -3.031397,-0.37994 -0.744157,-0.12065 -1.494923,-0.17241 -2.247459,-0.19604 -1.19045,-0.0632 -2.361473,0.19935 -3.518589,0.44162 -0.865951,0.20637 -1.744157,0.30498 -2.631621,0.33556 -1.039252,0.0163 -2.078679,0.0127 -3.118024,0.016 -0.760141,0.001 -1.520282,0.002 -2.280425,0.004 -0.641655,-0.0542 -1.26048,0.0458 -1.890136,0.14588 -0.550653,0.0861 -1.1079017,0.10732 -1.664158,0.11967 -0.5351372,0.008 -1.0703615,0.006 -1.6055411,0.005 -0.5291212,-0.0242 -1.067803,0.0542 -1.5883972,-0.0538 -0.4874001,-0.21 -0.6250829,-0.71547 -0.3928009,-1.16784 2.4849166,-1.78646 2.8182725,-2.16144 4.9835292,-2.17735 1.456075,0.13316 2.91722,0.19543 4.378255,0.24089 1.256746,0.10814 2.464687,0.47215 3.687898,0.75221 1.188592,0.32431 2.408895,0.48033 3.634654,0.56901 0.972416,0.059 1.947042,0.0529 2.920763,0.0595 1.584774,0.11917 3.172192,0.18655 4.760565,0.23156 1.570368,0.0395 3.141353,0.0393 4.712102,0.0368 1.332201,-2.6e-4 2.664397,-0.004 3.996592,0.001 1.291056,0.007 2.584643,0.0462 3.859263,-0.18739 1.001411,-0.20139 2.019739,-0.29198 3.033186,-0.41072 1.044657,-0.13987 2.070793,-0.36121 3.1008,-0.578 0.979615,-0.15909 1.978287,-0.15039 2.968196,-0.16779 0.804583,-0.011 1.609289,-0.0198 2.413924,-0.0111 1.245319,0.0144 2.490719,0.017 3.736107,0.016 1.138267,-0.004 2.276528,-0.007 3.414802,-0.007 0.98637,0.003 1.972747,-8e-4 2.959106,-0.006 0.952349,0.0215 1.898221,0.002 2.846887,-0.0819 0.882097,-0.0803 1.765345,-0.14483 2.650522,-0.17712 0.690986,0.004 1.369547,-0.006 2.052844,-0.10973 0.590267,-0.0993 1.186971,-0.14123 1.784408,-0.16242 0.537808,-0.0141 1.075865,-0.0123 1.613807,-0.0119 0.555877,-0.0523 1.060088,0.0934 1.568218,0.29608 0.439891,0.19447 0.929563,0.15652 1.382561,0.28552 0.439952,0.10661 0.87325,0.18094 1.259883,0.42779 0.459787,0.40537 0.345789,0.91323 0.01299,1.34961 -1.231914,1.10013 -0.127228,0.13802 -3.824822,2.23887 -0.291531,0.16564 -0.571622,0.2616 -0.899203,0.32929 -0.672147,0.0841 -1.350248,0.0723 -2.026076,0.0748 -1.173305,-0.008 -2.336199,-0.27475 -3.481503,-0.51252 -1.601089,-0.36478 -3.171862,-0.84553 -4.74971,-1.2972 -1.239983,-0.47262 -2.489751,-0.9034 -3.782084,-1.2058 -2.062385,-0.38588 -4.168132,-0.42485 -6.259425,-0.47851 -2.223135,-0.0994 -4.450752,-0.1287 -6.661423,-0.4015 -1.29504,-0.19281 -2.59811,-0.30785 -3.905673,-0.36281 -1.172998,-0.0376 -2.346854,-0.035 -3.520324,-0.0351 -1.078917,0.002 -2.157841,0.005 -3.236751,0.01 -0.97873,0.0235 -1.950616,7.9e-4 -2.924751,-0.0909 -0.892408,-0.053 -1.756262,-0.33481 -2.652866,-0.32053 -1.44126,0.4033 -0.46187,0.15135 2.951543,-1.69729 0.06399,-0.0347 -0.127772,0.0734 -0.178906,0.12514 -0.172921,0.17514 -0.211468,0.42514 -0.258323,0.65353 -0.151371,1.08919 1.107935,1.60796 1.903293,2.00769 2.83985,1.18793 5.991175,1.42161 9.029526,1.66879 1.143576,0.0626 2.296723,0.0958 3.431481,-0.0912 0.197633,-0.0326 0.393706,-0.0774 0.585491,-0.13519 0.113165,-0.0341 0.427766,-0.19951 0.326012,-0.1394 -1.096603,0.64788 -2.208583,1.26937 -3.312874,1.90406 -0.213635,0.12605 -0.01659,0.0323 -0.538591,-0.0979 -1.452349,-0.36239 -2.969903,-0.40965 -4.455213,-0.53401 -2.39526,-0.16596 -4.794867,-0.36128 -7.170489,-0.71703 -2.427454,-0.43292 -1.163225,-0.55762 2.170986,-2.70921 0.0929,-0.0599 0.220273,0.0195 0.330472,0.0284 0.153951,0.0125 0.30798,0.024 0.461973,0.0361 1.529916,0.0919 3.063846,0.20833 4.596694,0.14462 1.627949,-0.15267 2.938735,-1.24445 -2.710527,2.10583 -0.03776,0.0224 -1.278287,-0.14534 -1.360104,-0.1533 -0.658878,-0.0479 -0.443224,-0.0352 -1.052861,-0.0692 -0.105241,-0.006 -0.210818,-0.007 -0.315765,-0.0169 -0.03816,-0.004 -0.143642,-8e-4 -0.112617,-0.0232 3.331763,-2.41576 2.016914,-2.39779 3.742243,-2.32272 2.896402,0.0862 2.953168,-0.69206 -1.416701,2.32886 -0.849183,-0.026 -1.690719,-0.15658 -2.52498,-0.31005 0.373899,-0.0484 -0.675015,-0.045 -0.524523,-0.14647 1.188146,-0.80149 2.371651,-1.626 3.653967,-2.26611 0.20033,-0.1 0.441693,0.0737 0.662398,0.11143 1.236898,0.21126 0.740198,0.12323 2.13179,0.39758 1.251008,0.24499 2.511544,0.4349 3.773861,0.61015 0.361381,0.0502 1.267285,0.0916 1.637181,0.28362 -1.20644,0.7516 -2.350884,1.61333 -3.619313,2.25479 -0.205983,0.10417 -0.458512,-0.054 -0.688244,-0.0764 -0.293685,-0.0287 -0.587743,-0.0535 -0.881896,-0.0769 -1.037495,-0.0824 -2.075693,-0.13536 -3.11527,-0.18227 -0.05666,-0.002 -1.12539,-0.0641 -1.345544,0.001 -0.03915,0.0116 -0.04997,0.1432 -0.01532,0.12157 1.197703,-0.74742 2.278891,-1.69148 3.541895,-2.32231 0.239102,-0.11943 0.52228,0.11452 0.78549,0.16092 0.448516,0.0791 0.899475,0.14358 1.349214,0.21538 3.025632,0.53461 6.082495,0.8463 9.135803,1.16923 0.129577,0.0216 0.489402,-0.0196 0.388728,0.0648 -1.049007,0.87927 -2.144453,1.71889 -3.330932,2.40138 -0.187142,0.10765 -0.42301,-0.0879 -0.636624,-0.11915 -0.358876,-0.0525 -0.720903,-0.0815 -1.08004,-0.13221 -0.55526,-0.0784 -1.108565,-0.17006 -1.662848,-0.2551 -0.654492,-0.0889 -1.308981,-0.17785 -1.963473,-0.26678 -1.772399,-0.25168 -3.560191,-0.37243 -5.33368,-0.61443 -0.765199,-0.10442 -1.601462,-0.18332 -2.309394,-0.51471 -0.02519,-0.14572 -0.19993,-0.35722 -0.07553,-0.43717 1.231924,-0.79178 2.561323,-1.42912 3.90067,-2.02132 0.271233,-0.11993 0.589487,-0.0658 0.884653,-0.0945 0.394632,-0.0384 0.789459,-0.0751 1.184672,-0.10698 1.090369,-0.0879 1.737503,-0.12159 2.836191,-0.1883 1.23322,-0.0388 2.46703,-0.0488 3.700737,-0.0566 0.169667,-0.001 0.339511,-0.0103 0.509003,-0.003 0.04158,0.002 0.155152,0.008 0.120867,0.0314 -1.162968,0.80073 -2.361047,1.54923 -3.54157,2.32385 -1.734592,0.0124 -3.475466,-0.0809 -5.206216,0.0581 -0.09452,0.0581 -0.378799,0.23132 -0.283549,0.1744 1.119328,-0.6689 2.202894,-1.40115 3.355798,-2.01035 0.08758,-0.0463 0.18946,0.0579 0.284146,0.087 0.236371,0.0726 0.471123,0.15068 0.709017,0.21813 1.344753,0.38124 1.253239,0.33642 2.706783,0.65429 1.760077,0.39165 3.508124,0.83397 5.264169,1.24294 0,0 -3.156241,2.17851 -3.156241,2.17851 v 0 c -1.724843,-0.44991 -3.446601,-0.91604 -5.192964,-1.27723 -0.760683,-0.15691 -2.050534,-0.41121 -2.827108,-0.61368 -0.270443,-0.0705 -0.545647,-0.13467 -0.800496,-0.2494 -1.940156,-0.87344 1.579393,-2.55708 3.083091,-2.71269 1.75106,-0.0382 3.505065,0.0181 5.254429,-0.0942 -0.979432,0.76396 -1.956038,1.53158 -2.938298,2.2919 -0.122587,0.0949 -0.308811,-0.0292 -0.463701,-0.0355 -1.203862,-0.0493 -2.410097,-0.0238 -3.613343,0.027 -1.362419,0.0924 -2.722734,0.1862 -4.076835,0.36875 -0.311758,0.042 -1.17063,0.35122 -0.932413,0.14576 2.592626,-2.23608 3.902673,-1.15297 2.619272,-2.07583 0.594424,0.32714 1.425877,0.41557 2.073402,0.51848 1.748679,0.27794 3.515551,0.42 5.269241,0.65975 0.972703,0.11674 2.724777,0.33533 3.737485,0.42695 0.378254,0.0342 0.757272,0.0686 1.137042,0.0732 0.202816,0.002 0.755568,-0.18926 0.606277,-0.052 -2.702111,2.48514 -1.859119,2.62111 -3.367003,2.22124 -3.006,-0.49155 -6.044782,-0.77042 -9.056113,-1.22794 -0.477899,-0.0569 -0.956252,-0.1102 -1.433698,-0.1708 -0.283014,-0.0359 -1.020699,0.10797 -0.847572,-0.11878 0.753976,-0.98749 1.850057,-1.65993 2.808907,-2.45 0.0271,-0.0223 0.04169,0.0665 0.07627,0.0727 0.421552,0.075 0.866441,-0.0576 1.282538,0.071 1.349182,0.0686 2.697419,0.17099 4.046739,0.2326 0.239411,0.0109 0.885976,-0.15376 0.718759,0.0179 -0.858417,0.88136 -1.951098,1.49932 -2.926646,2.24899 -1.690746,-0.37353 -3.465036,-0.54834 -5.178002,-0.89049 -0.825796,-0.13438 -1.385276,-0.23921 -2.195549,-0.32546 -0.223258,-0.0238 -0.82513,0.11452 -0.671746,-0.0494 2.552385,-2.72831 1.741374,-2.49295 3.28793,-2.16042 0.830286,0.14676 1.67414,0.2608 2.519201,0.22586 -1.022289,0.78163 -2.039353,1.57015 -3.06687,2.3449 -0.09099,0.0686 -0.22732,-0.0187 -0.341262,-0.0203 -0.528352,-0.007 -1.056876,-0.002 -1.585045,0.013 -1.67218,0.12218 -0.576863,0.11246 2.721438,-2.28979 0.01606,-0.0117 0.03916,0.007 0.05889,0.009 0.322622,0.0366 0.393596,0.0395 0.759608,0.0704 0.192423,0.0162 0.384855,0.0323 0.577281,0.0484 0.266486,0.0272 0.825796,0.077 1.100264,0.13144 0.138478,0.0275 0.513281,0.017 0.408549,0.11164 -2.569006,2.32202 -1.988085,2.33142 -3.775258,2.36984 -1.545674,-0.005 -3.089534,-0.0961 -4.634579,-0.13247 -0.149667,0.008 -0.301601,-0.002 -0.449003,0.0248 -0.09329,0.0172 -0.339347,0.16423 -0.263766,0.1069 3.450828,-2.61776 1.947111,-2.48741 4.104169,-2.02404 2.341838,0.3791 4.706943,0.60757 7.074368,0.75011 0.30312,0.0231 2.384179,0.17901 2.730601,0.21461 0.649271,0.0667 1.91408,0.16034 2.492986,0.56786 0.143449,0.10098 0.221051,0.27247 0.331576,0.4087 -1.148117,0.71843 -2.278475,1.46606 -3.444357,2.15529 -0.09736,0.0576 -0.882687,0.15082 -0.893794,0.15186 -1.122836,0.10522 -2.250535,0.0567 -3.372501,-0.0368 -2.750367,-0.26215 -5.594114,-0.48109 -8.24267,-1.32403 -0.334118,-0.10634 -0.651013,-0.26068 -0.976519,-0.39102 -0.934492,-0.47916 -2.303298,-1.13993 -2.226977,-2.38777 0.215091,-1.99363 1.78562,-3.09235 4.249214,-3.13706 0.886658,0.0787 1.754711,0.29087 2.643793,0.35064 0.968936,0.0762 1.938176,0.0653 2.909618,0.0596 1.073459,0.003 2.146927,0.002 3.220389,0.003 1.178756,5.3e-4 2.357975,-0.002 3.535971,0.0474 1.302446,0.0734 2.597909,0.21603 3.887968,0.4108 2.183635,0.27081 4.383095,0.34507 6.581026,0.41181 2.131306,0.0435 4.276518,0.0936 6.377061,0.49224 1.298178,0.30102 2.534947,0.77431 3.786484,1.22704 1.568466,0.45396 3.128851,0.94313 4.730753,1.26969 1.14805,0.21337 2.30933,0.44767 3.482437,0.41394 0.664332,-0.0104 1.341964,-0.006 1.989016,-0.17515 0.222348,-0.0781 0.424982,-0.17207 0.636482,-0.27534 0.07283,-0.0356 0.289483,-0.14534 0.219752,-0.10404 -3.004433,1.77969 -4.287671,2.38617 -2.948874,1.7457 0.210749,-0.14781 0.676185,-0.45419 0.324483,-0.69296 -0.380588,-0.17005 -0.790393,-0.23501 -1.192567,-0.33701 -0.479499,-0.0752 -0.963086,-0.13472 -1.412542,-0.33242 -0.480983,-0.17124 -0.973159,-0.20719 -1.482164,-0.18112 -0.534093,8e-4 -1.068448,0.001 -1.602097,0.0257 -0.588058,0.0332 -1.173004,0.096 -1.755725,0.18232 -0.689716,0.0754 -1.382077,0.0564 -2.07478,0.0808 -0.872413,0.0338 -1.743369,0.0937 -2.613044,0.17063 -0.960723,0.0705 -1.921782,0.0809 -2.884918,0.0704 -0.981007,-0.005 -1.962031,-0.009 -2.943051,-0.006 -1.131226,-5.3e-4 -2.262433,-0.004 -3.393649,-0.008 -1.257959,-0.002 -2.515915,2.7e-4 -3.773842,0.0107 -0.7973,0.006 -1.594649,-0.008 -2.391939,0.005 -0.98321,0.0189 -1.974509,0.0349 -2.940505,0.23914 -1.026636,0.21311 -2.058723,0.39029 -3.097567,0.53427 -1.013838,0.1298 -2.030873,0.23568 -3.035792,0.42684 -1.284385,0.15617 -2.575658,0.12186 -3.86729,0.12017 -1.333926,0.006 -2.667868,0.005 -4.001799,0.002 -1.566402,-0.01 -3.132863,-0.0223 -4.6989,-0.0595 -1.597465,-0.0494 -3.192789,-0.14478 -4.790001,-0.19667 -0.980601,0.004 -1.962981,0.003 -2.940523,-0.0851 -1.234439,-0.11823 -2.458578,-0.30751 -3.660372,-0.62014 -1.198682,-0.28304 -2.389797,-0.6272 -3.626095,-0.7038 -1.470433,-0.0591 -2.939649,-0.15819 -4.4108929,-0.18658 -0.3132389,0.015 -0.6321094,0.0206 -0.9392925,0.0925 -0.3160858,0.0739 -0.4228539,0.1719 -0.3984594,0.1573 1.0719882,-0.64149 2.1486654,-1.27512 3.2229983,-1.91267 -0.2923492,0.091 -0.4749935,0.31181 -0.046871,0.39015 0.5170646,0.028 1.0356565,0.005 1.5532645,0.0131 0.532634,-2e-5 1.065414,0.001 1.597849,-0.0157 0.546497,-0.0224 1.092127,-0.0635 1.631997,-0.15518 0.638961,-0.0941 1.277253,-0.1151 1.923043,-0.0949 0.75317,0.003 1.50634,0.007 2.259505,0.0114 1.037444,0.005 2.075643,0.0105 3.112299,-0.0364 0.867576,-0.0561 1.72629,-0.18158 2.575848,-0.3685 1.184786,-0.23638 2.384965,-0.43987 3.598363,-0.38535 0.758219,0.0281 1.51044,0.11261 2.258705,0.23989 1.018927,0.14581 2.047066,0.20349 3.06318,0.37102 0.540879,0.11716 0.965461,0.35164 1.358511,0.74533 0.640614,0.43583 1.351735,0.59655 2.114499,0.71662 1.348933,0.24748 2.712342,0.38935 4.08549,0.39305 1.995598,0.0774 3.994859,0.16897 5.971738,0.47053 1.582327,0.22961 3.17422,0.41661 4.77429,0.45299 2.968641,0.11337 5.937848,0.17895 8.908703,0.10297 0.363585,-0.01 1.432404,-0.032 1.890644,-0.0621 0.178091,-0.0117 0.678471,-0.15538 0.532881,-0.0521 -2.893634,2.05178 -4.013144,1.02766 -2.880971,2.10959 0.01741,0.0166 -0.03361,-0.0345 -0.05041,-0.0517 -0.74141,-0.438 -1.49565,-0.87358 -2.343076,-1.07009 -2.122485,-0.33433 -4.273077,-0.20313 -6.413929,-0.2527 -0.924951,-0.0294 -2.641915,0.0799 -3.400898,-0.58012 -0.09269,-0.0806 -0.156874,-0.18907 -0.23531,-0.28361 -0.04829,-0.10795 -0.108315,-0.21139 -0.144873,-0.32386 -0.118795,-0.36549 -0.01389,-0.9001 -0.451781,-1.05567 -0.922261,-0.0619 -1.831549,0.27857 -2.697086,0.55015 -0.634195,0.24772 -1.263639,0.50557 -1.893408,0.7643 -0.289896,0.1191 -0.877822,0.38075 -1.205095,0.43777 -0.171876,0.03 -0.34883,0.008 -0.523246,0.0124 -0.882181,-0.40829 -0.881591,-0.89523 -1.003451,-1.7823 -0.107603,-0.94722 -0.243242,-1.63259 -1.282776,-1.88454 -0.213487,-0.0186 -0.426162,-0.0557 -0.640459,-0.0559 -0.681627,-7.9e-4 -1.085096,0.0942 -1.763683,0.24357 -1.120328,0.24662 -2.225757,0.56064 -3.303288,0.95513 -0.906114,0.35231 -1.092663,0.40556 -1.950575,0.81105 -0.60751,0.28714 -1.21357,0.72906 -1.858708,0.93261 -0.111604,0.0352 -0.231281,0.0359 -0.346919,0.0539 -0.78386,-0.12 -1.127041,-0.52592 -1.295117,-1.28831 -0.196496,-0.83974 -0.109691,-1.70208 -0.258564,-2.55079 -0.02297,-0.10211 -0.09306,-0.50426 -0.181229,-0.62662 -0.02241,-0.0311 -0.140703,-0.0192 -0.108052,-0.0393 1.060149,-0.6518 2.15902,-1.23871 3.226709,-1.87809 0.0922,-0.0552 -0.206619,0.0668 -0.297606,0.12402 -0.135216,0.085 -0.249801,0.19908 -0.374703,0.29862 -1.277374,1.36851 -2.172081,3.04313 -3.289253,4.53774 -1.70336,2.40931 -1.622299,2.34768 -5.178206,4.09162 -0.239995,0.11771 -0.358478,-0.45752 -0.376989,-0.51572 0.123773,-1.15535 0.360559,-2.30693 0.282755,-3.47556 0,0 3.520575,-1.79382 3.520575,-1.79382 z"
       inkscape:connector-curvature="0" />
    <rect
       style="opacity:1;fill:#ffffff;fill-opacity:1;stroke-width:0.1;stroke-miterlimit:4;stroke-dasharray:none;stroke:#000000;stroke-opacity:1;stroke-linejoin:bevel"
       id="rect6127"
       width="20"
       height="15"
       x="5.000011"
       y="252" />
    <path
       style="fill:#ff5959;fill-opacity:1;fill-rule:nonzero;stroke:none;stroke-width:0.26458332"
       id="path6133"
       d="m 74.361569,246.9963 c 0.02742,-0.003 0.05491,-0.005 0.08244,-0.006 0.01963,-8e-4 0.03928,-8e-4 0.05893,-0.001 0.01873,6e-5 0.03744,9e-5 0.05616,8e-5 0.01744,-1e-5 0.03488,-2e-5 0.05232,-3e-5 0.02053,9e-5 0.04105,9e-5 0.06157,1.6e-4 0.02249,-1e-5 0.04496,0 0.06744,-5e-5 0.01826,-6e-5 0.03651,-9e-5 0.05477,-1e-4 0.01685,0.001 0.03305,-0.003 0.04962,-0.006 0.01677,-0.002 0.03366,-0.002 0.05052,-0.003 0,0 -0.1001,0.073 -0.1001,0.073 v 0 c -0.01656,5.3e-4 -0.03317,0.001 -0.04957,0.004 -0.01683,0.003 -0.03356,0.006 -0.0507,0.004 -0.01818,-2e-5 -0.03634,-4e-5 -0.05451,-1e-4 -0.02244,-5e-5 -0.04487,-4e-5 -0.0673,-5e-5 -0.02066,7e-5 -0.04132,6e-5 -0.06198,1.5e-4 -0.01741,-1e-5 -0.03481,-2e-5 -0.05221,-6e-5 -0.01873,-4e-5 -0.03748,-7e-5 -0.05622,1e-5 -0.01937,5e-5 -0.03875,1.9e-4 -0.0581,0.001 -0.02756,0.001 -0.05513,0.003 -0.08245,0.007 0,0 0.09937,-0.0741 0.09937,-0.0741 z"
       inkscape:connector-curvature="0" />
    <path
       style="fill:#ff5959;fill-opacity:1;fill-rule:nonzero;stroke:none;stroke-width:0.26458332"
       id="path6139"
       d="m 74.981289,247.01448 c 0.0011,-0.003 0.0021,-0.005 0.0024,-0.008 2.1e-5,-0.002 -0.0011,-0.003 -0.0019,-0.004 -0.0011,-0.001 -0.0027,-0.001 -0.0042,-0.001 -0.0021,-10e-5 -0.004,-8e-5 -0.006,-7e-5 -0.0021,-1.9e-4 -0.0041,2.4e-4 -0.0061,5.3e-4 -0.0013,2.7e-4 -0.0028,1.7e-4 -0.0042,2.7e-4 -5.29e-4,9e-5 -0.0011,2.6e-4 -0.0016,5.3e-4 -0.0024,7.9e-4 -0.0049,5.2e-4 -0.0074,1.9e-4 -0.0032,-2.3e-4 -0.0064,-2.7e-4 -0.0094,-0.001 -0.0021,-8e-4 -0.0042,-10e-4 -0.0064,-10e-4 -0.0021,-1e-5 -0.0041,-1.1e-4 -0.0062,-5.3e-4 -0.0024,-5.3e-4 -0.0047,-5.3e-4 -0.007,-5.3e-4 -0.0035,2e-5 -0.0069,-2.6e-4 -0.01037,1.2e-4 -0.0024,2.7e-4 -0.0049,7.9e-4 -0.0074,7.9e-4 -0.0013,1.9e-4 -0.0028,-7e-5 -0.0042,9e-5 -5.29e-4,7e-5 -0.0011,2.6e-4 -0.0016,5.3e-4 -0.0024,5.3e-4 -0.0046,5.3e-4 -0.0069,7.9e-4 -0.0029,5.3e-4 -0.0058,8e-4 -0.0087,8e-4 -0.0024,7e-5 -0.0049,8e-5 -0.0074,8e-5 -0.0019,5.3e-4 -0.0037,5.3e-4 -0.0054,0.001 -0.0019,5.3e-4 -0.004,8e-4 -0.0061,8e-4 -0.0021,-2e-5 -0.0041,7e-5 -0.0062,5.2e-4 0,0 0.01225,-0.009 0.01225,-0.009 v 0 c 0.0021,-2.7e-4 0.0042,-2e-4 0.0062,-2.7e-4 0.0021,-1.9e-4 0.004,-5.3e-4 0.0059,-0.001 0.0019,-2.6e-4 0.0037,-7.9e-4 0.0056,-7.9e-4 0.0024,0 0.0049,0 0.0073,-1.5e-4 0.0029,-1.8e-4 0.0057,-5.3e-4 0.0086,-7.9e-4 0.0024,-2.2e-4 0.0046,-2.7e-4 0.0069,-8e-4 0.0019,-2.6e-4 0.004,-1.4e-4 0.006,-2.6e-4 0.0024,-1.9e-4 0.0048,-5.3e-4 0.0073,-7.9e-4 0.0035,-1.5e-4 0.007,-2e-5 0.01048,1e-5 0.0024,8e-5 0.0048,2.4e-4 0.0072,7.9e-4 0.0021,2.7e-4 0.0041,1.9e-4 0.0061,5.3e-4 0.0021,2.6e-4 0.0044,7.9e-4 0.0065,0.002 0.003,7.9e-4 0.0061,7.9e-4 0.0092,0.001 0.0024,1.2e-4 0.0049,6e-5 0.0072,-5.3e-4 0.0019,-2.7e-4 0.004,-2.7e-4 0.0059,-8e-4 0.0021,-2.6e-4 0.0042,-5.3e-4 0.0063,-2.6e-4 0.0021,0 0.0041,-2e-5 0.0061,2e-4 0.0019,2.6e-4 0.0036,7.9e-4 0.0048,0.002 0.0013,0.001 0.0024,0.003 0.0024,0.005 -1.46e-4,0.003 -0.0011,0.006 -0.0021,0.009 0,0 -0.01394,0.006 -0.01394,0.006 z"
       inkscape:connector-curvature="0" />
    <path
       style="fill:#ff5959;fill-opacity:1;fill-rule:nonzero;stroke:none;stroke-width:0.26458332"
       id="path6141"
       d="m 74.934876,247.00836 c -0.01061,-2.6e-4 -0.02125,-7e-5 -0.03186,2.3e-4 -0.0061,2e-4 -0.0122,5.3e-4 -0.01831,5.3e-4 0,0 0.01209,-0.009 0.01209,-0.009 v 0 c 0.006,-6e-5 0.01191,-1.6e-4 0.01786,-2.7e-4 0.01085,-2.6e-4 0.02172,-5.2e-4 0.03258,-7.9e-4 0,0 -0.01236,0.009 -0.01236,0.009 z"
       inkscape:connector-curvature="0" />
    <path
       style="opacity:1;fill:#ff5959;fill-opacity:1;stroke-width:0;stroke-miterlimit:4;stroke-dasharray:none"
       id="path6145"
       d="m 74.985192,247.0167 c 8.7e-5,-0.003 5e-5,-0.006 3.2e-5,-0.009 -2.65e-4,-0.002 -1.72e-4,-0.004 -0.0011,-0.005 -1.42e-4,-1.1e-4 -2.64e-4,-2.1e-4 -5.29e-4,-2.6e-4 0,0 0.0131,-0.008 0.0131,-0.008 v 0 c 2.17e-4,2.3e-4 5.29e-4,5.2e-4 5.29e-4,7.9e-4 0.0011,0.002 0.0011,0.004 0.0013,0.006 -1.8e-5,0.003 -5.5e-5,0.006 3.2e-5,0.009 0,0 -0.01368,0.007 -0.01368,0.007 z"
       inkscape:connector-curvature="0" />
    <path
       style="opacity:1;fill:#ff5959;fill-opacity:1;stroke-width:0;stroke-miterlimit:4;stroke-dasharray:none"
       id="path6147"
       d="m 2.7110604,246.93705 c -0.020145,0.005 -0.039968,0.0115 -0.05953,0.0186 -0.01923,0.007 -0.03735,0.0162 -0.055478,0.0255 -0.011099,0.006 -0.022852,0.01 -0.035334,0.0118 -0.0096,0.002 -0.019375,0.003 -0.028997,0.006 -0.014309,0.002 -0.02866,0.005 -0.042969,0.007 -0.0098,10e-4 -0.019516,0.003 -0.029257,0.005 -0.00703,5.3e-4 -0.013914,0.002 -0.020873,0.003 -0.00705,0.001 -0.013962,0.003 -0.021103,0.004 -0.011427,5.2e-4 -0.022889,7.9e-4 -0.034311,7e-5 -0.019577,-0.002 -0.0392,-0.002 -0.058822,-0.002 -0.021048,-2.7e-4 -0.042095,-2.7e-4 -0.063144,-2.5e-4 -0.011676,5.3e-4 -0.023254,0.002 -0.034919,0.003 -0.00947,5.3e-4 -0.01896,5.3e-4 -0.028439,5.3e-4 -0.011782,0 -0.023561,-4e-5 -0.035344,-6e-5 -0.017235,-6e-5 -0.034467,-1.7e-4 -0.051701,-1.9e-4 -0.018185,8e-5 -0.036338,-0.001 -0.054501,-0.002 0.00661,-0.003 -0.010253,10e-4 -0.00801,-2.7e-4 0.013113,-0.008 0.025942,-0.0177 0.040189,-0.0241 0.00285,-0.001 0.00613,0.001 0.00919,0.002 0.033106,0.007 -0.00868,-0.002 0.036896,0.008 0.060093,0.0119 0.1206429,0.0213 0.1814447,0.0287 0.047994,0.005 0.095897,0.0116 0.1440513,0.0156 0.031215,0.003 0.062496,0.005 0.093818,0.006 0.017407,5.3e-4 0.034822,5.3e-4 0.052234,5.3e-4 0.014478,-5e-5 0.02896,-10e-6 0.043438,-2.5e-4 -0.00626,0.003 0.00498,-0.001 0.00392,-2.1e-4 -0.01215,0.009 -0.023815,0.0181 -0.036709,0.0257 -0.00138,7.9e-4 -0.00297,-0.001 -0.00448,-0.002 -0.00397,-0.001 -0.012613,-0.003 -0.01619,-0.004 -0.017362,-0.005 -0.034618,-0.0106 -0.050486,-0.0193 -0.00257,-0.002 -0.013795,-0.0111 -0.014465,-0.0139 -3.704e-4,-0.002 2.038e-4,-0.003 3.175e-4,-0.005 0.014065,-0.008 0.027695,-0.0166 0.0422,-0.0236 0.00135,-5.3e-4 0.019923,-0.002 0.020595,-0.002 0.011898,-0.001 0.023797,-0.002 0.035682,-0.003 0.0022,-2.6e-4 0.00849,-0.002 0.00661,-0.001 -0.01166,0.008 -0.024254,0.0135 -0.036411,0.0202 -0.00119,5.3e-4 -0.00225,0.002 -0.00361,0.002 -0.00565,-2.6e-4 -0.011115,-0.002 -0.01669,-0.003 -0.024635,-0.004 -0.033333,-0.006 -0.059325,-0.01 -0.035893,-0.006 -0.071893,-0.0107 -0.1080198,-0.0146 -0.018788,-0.002 -0.037759,-0.004 -0.056676,-0.004 -7.938e-4,2.6e-4 -0.00314,0.001 -0.00241,7.9e-4 0.013152,-0.008 0.025768,-0.0179 0.039765,-0.0248 0.00259,-0.001 0.00576,5.3e-4 0.00864,8e-4 0.010623,7.9e-4 0.021138,7.9e-4 0.031784,7.9e-4 0.011017,0.001 0.023707,-0.004 0.034243,0.001 0.00138,5.3e-4 0.00254,0.002 0.00381,0.003 0.00315,0.003 0.00952,0.007 0.00899,0.0123 -1.317e-4,0.001 -3.175e-4,0.003 -0.00143,0.004 -0.013721,0.008 -0.028228,0.015 -0.042342,0.0225 -0.02767,0.002 -0.055463,0.001 -0.083185,0.001 -0.026549,5.3e-4 -0.053009,-5.3e-4 -0.079486,-0.002 0,0 0.032901,-0.0236 0.032901,-0.0236 v 0 c 0.026517,0.002 0.053027,0.002 0.079601,0.002 0.028067,-1.7e-4 0.056457,5.3e-4 0.084275,-0.004 -0.010665,0.007 -0.02164,0.0128 -0.032,0.0198 -5.821e-4,5.3e-4 0.00413,7.9e-4 0.00356,-0.001 -8.467e-4,-0.003 -0.00487,-0.005 -0.00716,-0.007 -0.010933,-0.006 -0.024143,-0.002 -0.035906,-0.003 -0.010742,-6e-5 -0.021413,-2.6e-4 -0.03214,-0.001 -0.00311,-1.8e-4 -0.011253,0.002 -0.00932,-5.3e-4 0.022416,-0.0284 0.017748,-0.029 0.032125,-0.0256 0.053992,0.006 0.1078044,0.0142 0.1616596,0.0215 0.020505,0.003 0.041018,0.005 0.06152,0.008 0.00619,8e-4 0.012594,8e-4 0.018576,0.003 0.029086,0.009 -0.018539,0.0288 -0.035848,0.0281 -0.015729,0.001 -0.031732,0.002 -0.047304,0.005 -0.00301,5.3e-4 -0.011345,0.004 -0.00894,0.002 0.00979,-0.008 0.021077,-0.0132 0.031616,-0.0198 -0.00101,-2e-4 -0.00233,-0.001 -0.003,-5.3e-4 -5.821e-4,7.9e-4 0.00101,0.002 0.00161,0.002 0.00342,0.004 0.00727,0.007 0.011517,0.0104 0.01542,0.009 0.032184,0.0144 0.049324,0.0187 5.5e-5,1e-5 0.015486,0.004 0.01687,0.004 0.00143,2.6e-4 0.00541,-5.3e-4 0.00432,5.3e-4 -0.033389,0.0295 -0.020079,0.0261 -0.037321,0.0255 -0.014317,-2e-4 -0.028633,-1e-4 -0.04295,-1.2e-4 -0.017362,-3e-5 -0.034736,10e-5 -0.052084,-8e-4 -0.030873,-0.002 -0.061677,-0.004 -0.092469,-0.007 -0.047887,-0.004 -0.095524,-0.0106 -0.143256,-0.0164 -0.060922,-0.008 -0.1215887,-0.018 -0.1821481,-0.0285 -0.00798,-0.001 -0.015965,-0.003 -0.023947,-0.004 -0.00495,-8e-4 -0.00988,-0.002 -0.01483,-0.003 -0.00326,-5.2e-4 -0.011806,0.001 -0.00982,-0.002 0.021688,-0.0288 0.019497,-0.0265 0.03776,-0.0252 0.017957,0.001 0.035931,0.002 0.053934,0.002 0.017404,-2e-5 0.034808,-1.3e-4 0.052213,-1.8e-4 0.011819,-1e-5 0.023638,-1e-5 0.035458,-5e-5 0.00947,-6e-5 0.018947,-1.4e-4 0.028405,-7.9e-4 0.011478,-8e-4 0.022934,-0.002 0.03445,-0.002 0.020987,1.2e-4 0.041975,1.2e-4 0.06296,5.3e-4 0.019791,2.6e-4 0.039573,10e-4 0.059334,0.002 0.01147,2.6e-4 0.022992,2e-4 0.034413,-0.001 0.00705,-10e-4 0.01397,-0.003 0.021013,-0.004 0.00691,-0.001 0.013872,-0.002 0.020804,-0.003 0.0096,-0.002 0.019254,-0.003 0.028876,-0.004 0.014367,-0.002 0.028765,-0.004 0.043047,-0.007 0.00969,-0.002 0.019418,-0.004 0.029105,-0.005 0.012084,-0.002 0.023371,-0.007 0.034203,-0.0126 0.017944,-0.009 0.036131,-0.0179 0.055168,-0.0245 0.020079,-0.007 0.040406,-0.0134 0.060907,-0.0193 0,0 -0.034256,0.0263 -0.034256,0.0263 z"
       inkscape:connector-curvature="0" />
    <path
       style="opacity:1;fill:#ff5959;fill-opacity:1;stroke-width:0;stroke-miterlimit:4;stroke-dasharray:none"
       id="path6149"
       d="m 2.1142694,246.99765 c -0.017791,-0.003 -0.035897,-0.003 -0.053873,-0.003 -0.029812,1.1e-4 -0.059386,0.004 -0.088882,0.008 -0.033575,0.004 -0.067241,0.006 -0.1009854,0.008 -0.015004,7.9e-4 -0.030038,7.9e-4 -0.045047,0.001 -0.00106,5e-5 -0.013359,8e-4 -0.015899,0.001 -7.673e-4,1.6e-4 -0.0014,7.9e-4 -0.00209,0.001 0.00924,-0.005 0.017754,-0.0124 0.027729,-0.0163 0.00243,-0.001 0.00497,0.002 0.00749,0.002 0.00512,0.002 0.010239,0.003 0.015407,0.004 0.027617,0.007 0.055649,0.0121 0.083684,0.0173 0.067983,0.0129 0.1366734,0.0211 0.205408,0.0287 0.015944,0.002 0.031941,0.003 0.047899,0.005 0.00183,1.9e-4 0.00694,-2.6e-4 0.00543,5.3e-4 -0.030073,0.0204 -0.022019,0.0185 -0.046819,0.0127 -0.068992,-0.0143 -0.1386168,-0.0254 -0.2084189,-0.0349 -0.025344,-0.004 -0.050797,-0.006 -0.076175,-0.009 -0.00359,-5.3e-4 -0.0072,-8e-4 -0.010739,-0.002 -0.00101,-2.1e-4 -0.00356,-7.9e-4 -0.00273,-0.001 0.00935,-0.007 0.019698,-0.0121 0.029546,-0.0181 0.023614,-5.3e-4 0.047192,-1.3e-4 0.070764,0.001 0.011708,7.9e-4 0.00615,5.3e-4 0.016666,0.001 0,0 -0.024252,0.0173 -0.024252,0.0173 v 0 c -0.010176,-0.001 -0.00479,-5.2e-4 -0.01615,-0.001 -0.02368,-0.002 -0.047523,-0.002 -0.071192,-1e-4 0.00681,-0.006 0.01333,-0.0114 0.020426,-0.0166 3.969e-4,-2.7e-4 4.762e-4,0.001 9.26e-4,0.001 0.00316,0.001 0.00644,0.002 0.00969,0.002 0.024363,0.005 0.049022,0.007 0.073497,0.0113 0.070557,0.0101 0.1409312,0.0215 0.2112616,0.0331 0.021788,0.003 0.027894,-5.3e-4 -9.789e-4,0.0208 -0.0013,10e-4 -0.00311,-8e-4 -0.00468,-0.001 -0.00565,-0.001 -0.020455,-0.003 -0.02477,-0.004 -0.00695,-0.001 -0.013909,-0.002 -0.020862,-0.003 -0.031478,-0.004 -0.063026,-0.008 -0.094485,-0.0122 -0.036811,-0.005 -0.073463,-0.0112 -0.1101223,-0.0172 -0.028791,-0.005 -0.057541,-0.01 -0.086107,-0.0159 -0.00554,-0.001 -0.011078,-0.002 -0.016584,-0.004 -0.00284,-7.9e-4 -0.010017,1.5e-4 -0.00846,-0.002 0.00517,-0.008 0.014642,-0.0128 0.021963,-0.0192 0.020434,-0.002 0.041061,-2e-5 0.061507,-0.002 0.033883,-0.002 0.067675,-0.004 0.101342,-0.008 0.029583,-0.004 0.059232,-0.008 0.089101,-0.008 0.018576,-5e-5 0.037246,1.5e-4 0.055687,0.003 0,0 -0.025098,0.0175 -0.025098,0.0175 z"
       inkscape:connector-curvature="0" />
    <path
       style="opacity:1;fill:#ff5959;fill-opacity:1;stroke-width:0;stroke-miterlimit:4;stroke-dasharray:none"
       id="path6151"
       d="m 1.9961861,246.99944 c 0.00571,-0.002 0.011483,-0.005 0.017227,-0.007 0.00564,-0.002 0.00651,-0.003 0.012607,-0.004 0.00214,-2.1e-4 0.0043,-1e-5 0.00645,-1e-5 0.010149,5.3e-4 0.019333,0.005 0.028524,0.008 0.011012,0.005 0.00502,0.002 0.015846,0.007 0.00662,0.003 0.013279,0.006 0.019876,0.008 2.91e-4,1.3e-4 0.00577,0.002 0.00644,0.004 5.291e-4,7.9e-4 2.91e-4,0.002 4.498e-4,0.003 -0.010173,0.005 -0.01986,0.0117 -0.03052,0.0159 -0.00259,10e-4 -0.00557,-2.6e-4 -0.00836,-5.3e-4 -0.0041,-2.6e-4 -0.0082,-5.2e-4 -0.012308,-7.9e-4 -0.019151,-10e-4 -0.038297,-0.002 -0.057479,-0.003 -0.015261,-8e-5 -0.030558,-0.001 -0.045827,-8e-4 -0.00201,1e-4 -0.00763,0.002 -0.00597,5.3e-4 0.00877,-0.006 0.018706,-0.01 0.027885,-0.0153 0.0034,7.9e-4 0.00678,0.002 0.01021,0.002 0.016179,0.003 0.039785,0.007 0.055121,0.009 0.01378,0.002 0.027549,0.004 0.04136,0.006 0.03348,0.004 0.062093,0.007 0.095724,0.011 0.03992,0.004 0.079898,0.007 0.1199348,0.01 0.00735,5.3e-4 0.014695,0.001 0.022056,0.001 0.0035,5e-5 0.013308,-0.003 0.010483,-8e-4 -0.00886,0.006 -0.019682,0.01 -0.029524,0.0146 -0.062733,-0.015 -0.1264918,-0.0254 -0.1902566,-0.0349 -0.017912,-0.002 -0.035716,-0.005 -0.053623,-0.007 -0.0043,-5.3e-4 -0.0086,-0.001 -0.01293,-0.001 -6.086e-4,-1e-5 -0.00217,0.001 -0.00161,8e-4 0.03918,-0.018 0.021542,-0.0183 0.05096,-0.0118 0.027689,0.005 0.055622,0.01 0.083662,0.013 0.0083,0.001 0.016611,0.002 0.024955,0.002 0.00437,2.4e-4 0.01674,-0.003 0.013123,-2.6e-4 -0.0093,0.006 -0.020839,0.008 -0.031258,0.0127 -0.00936,-0.003 -0.018624,-0.006 -0.028077,-0.009 -0.036417,-0.0104 -0.1047602,-0.0271 -0.1364673,-0.0346 -0.097981,-0.0232 -0.196501,-0.0436 -0.2951493,-0.0638 -0.024453,-0.005 -0.048867,-0.01 -0.07336,-0.0145 -0.014115,-0.003 -0.02823,-0.005 -0.042463,-0.007 -0.00238,-2.7e-4 -0.00954,0.001 -0.00718,5.2e-4 0.017248,-0.003 0.034355,-0.0102 0.05189,-0.009 0.018436,0.001 0.035489,0.0102 0.053255,0.0153 0.02323,0.007 0.04649,0.0131 0.069735,0.0196 0.080229,0.0228 0.1609958,0.0436 0.2411764,0.0665 0.015187,0.004 0.030309,0.009 0.045469,0.0134 0.012901,0.006 0.021243,0.009 -0.030937,0.0164 -0.00781,10e-4 -0.015134,-0.004 -0.022741,-0.007 -0.010798,-0.003 -0.021624,-0.006 -0.032471,-0.009 -0.035582,-0.009 -0.038696,-0.01 -0.074221,-0.0178 -0.00574,-0.001 -0.045716,-0.0101 -0.054968,-0.0116 -0.00148,-2.5e-4 -0.00589,5.3e-4 -0.00447,7e-5 0.014182,-0.004 0.028056,-0.0117 0.042888,-0.0118 0.01388,-1.2e-4 0.026707,0.008 0.040123,0.0112 0.020764,0.006 0.04161,0.0107 0.062415,0.0161 0.09003,0.0233 0.1802884,0.0457 0.2707753,0.0672 0.071591,0.017 0.1434407,0.0328 0.2151603,0.0492 0.010464,0.002 0.020931,0.005 0.031395,0.007 0.0014,5.2e-4 0.00564,10e-4 0.00421,10e-4 -0.066248,0.0171 -0.041056,0.0126 -0.1129014,-0.005 -0.045768,-0.0111 -0.1370629,-0.0321 -0.1812502,-0.0423 -0.079051,-0.0179 -0.1582116,-0.0354 -0.2373034,-0.0531 -0.013825,-0.003 -0.027646,-0.006 -0.041482,-0.009 -0.02145,-0.005 -0.013822,-0.005 -0.024151,-0.004 0.011509,-0.005 0.022275,-0.0121 0.034525,-0.0144 0.00529,-0.001 0.010237,0.003 0.015378,0.005 0.017037,0.005 0.034472,0.01 0.051019,0.0164 0.00879,0.01 0.00693,0.007 -0.028714,0.0178 -0.0038,0.001 -0.00769,-0.002 -0.011546,-0.003 -0.0059,-0.002 -0.011808,-0.003 -0.017724,-0.004 -0.015592,-0.004 -0.031212,-0.007 -0.046817,-0.0109 -0.011692,-0.003 -0.031097,-0.007 -0.043278,-0.009 -0.00426,-7.9e-4 -0.00851,-0.002 -0.012793,-0.003 -0.0014,-2.6e-4 -0.00549,1.6e-4 -0.00426,-5.3e-4 0.032594,-0.0192 0.02218,-0.0181 0.048449,-0.009 0.092143,0.0257 0.1868821,0.0403 0.2813333,0.0545 0.0085,10e-4 0.016997,0.002 0.025495,0.004 7.673e-4,-1.4e-4 0.00304,-5.3e-4 0.0023,-5.3e-4 -0.016179,0.004 -0.031882,0.0117 -0.048584,0.0125 -0.015864,8e-4 -0.031286,-0.005 -0.046933,-0.008 -0.082989,-0.0144 -0.058439,-0.0102 -0.1484145,-0.0252 -0.089795,-0.0143 -0.077364,-0.0126 -0.1647855,-0.0257 -0.018897,-0.003 -0.085889,-0.0131 -0.1105196,-0.0156 -0.00724,-8e-4 -0.024421,0.006 -0.021828,-8e-4 0.00359,-0.009 0.01814,-0.009 0.027209,-0.0132 0.056667,0.0196 0.1153605,0.0324 0.1732527,0.0477 0.00193,5.3e-4 0.00742,5.3e-4 0.00577,0.002 -0.00972,0.007 -0.020122,0.0129 -0.031507,0.0158 -0.00517,0.001 -0.010356,-0.003 -0.015526,-0.004 -0.00725,-0.002 -0.014483,-0.004 -0.021738,-0.006 -0.015052,-0.004 -0.030136,-0.008 -0.045193,-0.0114 0.018256,-0.005 -0.026462,-0.002 -0.021212,-0.007 0.00779,-0.008 0.017481,-0.0142 0.027693,-0.0186 0.00355,-0.002 0.00764,0.001 0.011454,0.002 0.025818,0.004 0.013854,0.002 0.043045,0.007 0.00922,0.002 0.018449,0.003 0.027671,0.005 0.0215,0.004 0.028351,0.005 0.049079,0.008 0.00534,7.9e-4 0.010665,0.002 0.016026,0.003 0.00246,2.6e-4 0.00956,-5.3e-4 0.00746,7.9e-4 -0.00996,0.006 -0.021415,0.0101 -0.032124,0.0151 -0.056297,-0.0135 -0.1132168,-0.0243 -0.1700763,-0.0351 0.025575,-0.0102 -0.035045,2.7e-4 -0.028123,-0.006 0.00818,-0.008 0.018418,-0.0141 0.029284,-0.0174 0.00549,-0.002 0.011218,0.002 0.016854,0.003 0.021947,0.004 0.043959,0.008 0.065928,0.0121 0.03627,0.006 0.072682,0.0121 0.1090919,0.0177 0.00812,0.001 0.028043,0.005 0.037916,0.005 0.00217,1.5e-4 0.00436,-1.8e-4 0.00655,-2.6e-4 0,0 -0.02435,0.0175 -0.02435,0.0175 v 0 c -0.013875,-0.002 -0.027567,-0.005 -0.04133,-0.008 -0.035884,-0.007 -0.071907,-0.0126 -0.1079201,-0.0185 -0.02136,-0.003 -0.046968,-0.007 -0.06885,-0.01 -0.00608,-7.9e-4 -0.018714,0.004 -0.018275,-0.002 0.00225,-0.0313 0.017481,-0.0168 0.026769,-0.0139 0.00598,0.002 0.012123,0.003 0.018185,0.005 0.057376,0.0122 0.114963,0.0235 0.1727935,0.0334 -0.00559,0.006 -0.01003,0.0138 -0.016764,0.0189 -0.00172,0.001 -0.00419,-0.001 -0.0063,-0.002 -0.00502,-0.001 -0.010044,-0.002 -0.015089,-0.003 -0.025326,-0.005 -0.050835,-0.009 -0.076398,-0.0129 -0.01215,-0.002 -0.031851,-0.005 -0.0447,-0.005 -0.00394,-2.5e-4 -0.013838,0.003 -0.011851,1e-5 0.018685,-0.0321 0.014867,-0.0182 0.02645,-0.0131 0.00446,0.002 0.00916,0.003 0.013743,0.005 0.022355,0.006 0.044809,0.0119 0.06754,0.0165 0.00556,0.001 0.017116,-0.003 0.016767,0.003 -0.00188,0.0305 -0.01407,0.0207 -0.021947,0.0155 -0.00536,-0.002 -0.010655,-0.004 -0.016081,-0.006 -0.052578,-0.0164 -0.1066806,-0.0273 -0.1597388,-0.0419 0.00704,-0.006 0.01234,-0.0153 0.021119,-0.0188 0.0059,-0.002 0.012472,0.002 0.018698,0.003 0.014118,0.003 0.028201,0.005 0.042328,0.008 0.075719,0.0136 0.1517044,0.0256 0.2277586,0.0371 0.050996,0.008 0.1018517,0.0153 0.1529715,0.0219 0.016709,0.002 0.03516,-0.002 0.0502,0.006 0.00586,0.003 -3.175e-4,0.0131 4.498e-4,0.0197 7.59e-5,5.3e-4 0.00241,-5.3e-4 0.00177,-8e-4 -0.00777,-0.002 -0.015719,-0.003 -0.023577,-0.005 -0.066926,-0.0123 -0.1340014,-0.0238 -0.200904,-0.0363 -0.016891,-0.003 -0.0338,-0.006 -0.050648,-0.01 -0.010922,-0.002 -0.02177,-0.005 -0.032654,-0.007 -0.024559,-0.006 -0.028389,-0.001 -4.233e-4,-0.0237 8.731e-4,-8e-4 0.00196,0.001 0.00302,0.001 0.0039,0.001 0.00785,0.002 0.011808,0.003 0.0063,0.002 0.012621,0.003 0.018955,0.005 0.00784,0.002 0.015706,0.004 0.023559,0.005 0.022865,0.005 0.025374,0.006 0.047724,0.0102 0.00618,0.001 0.012361,0.003 0.018566,0.004 0.00411,7.9e-4 0.014113,-0.002 0.01238,0.002 -0.00372,0.008 -0.013999,0.0113 -0.021,0.0169 6.01e-5,-2.2e-4 1.202e-4,-5.3e-4 1.802e-4,-7.9e-4 -0.01546,-0.008 -0.032834,-0.0123 -0.049488,-0.017 -0.00538,-0.002 -0.015904,0.001 -0.016195,-0.004 -4.234e-4,-0.008 0.00997,-0.013 0.014954,-0.0196 0.00406,0.007 8.996e-4,0.002 0.018799,0.008 0.01275,0.004 0.025577,0.008 0.03846,0.0113 0.076906,0.0212 0.1547847,0.0386 0.2325254,0.0564 0.074747,0.0164 0.1116595,0.025 0.1856761,0.0392 0.022259,0.004 0.046348,0.002 0.066949,0.0119 0.00623,0.003 0.00185,0.0136 0.00328,0.0203 1.812e-4,8e-4 3.439e-4,-0.002 5.027e-4,-0.003 -0.00939,-0.003 -0.018783,-0.006 -0.028176,-0.009 -0.017164,-0.005 -0.034269,-0.01 -0.051487,-0.0142 -0.023548,-0.006 -0.047181,-0.012 -0.070806,-0.0179 -0.1203296,-0.03 -0.2411196,-0.0581 -0.3621027,-0.0853 -0.021836,-0.005 -0.043659,-0.009 -0.065505,-0.014 -0.014425,-0.003 -0.031737,1.6e-4 -0.043303,-0.009 -0.0057,-0.005 0.00271,-0.0143 0.00511,-0.0212 2.646e-4,-8e-4 9.525e-4,0.002 0.00172,0.002 0.00705,0.002 0.050163,0.0123 0.053019,0.013 0.036136,0.008 0.072223,0.0173 0.1084938,0.0252 0.0082,0.002 0.02172,-0.003 0.024686,0.005 0.00276,0.007 -0.014105,0.0265 -0.016761,0.0164 -0.00463,-0.002 -0.00918,-0.004 -0.01388,-0.006 -0.022857,-0.009 -0.045628,-0.0161 -0.069062,-0.0234 -0.0648,-0.0202 -0.1301853,-0.0384 -0.1957822,-0.0558 -0.023984,-0.006 -0.047898,-0.0123 -0.071951,-0.0181 -0.018912,-0.005 -0.040038,-0.003 -0.056932,-0.0127 -0.00682,-0.004 -0.00427,-0.0151 -0.00553,-0.0229 -1.931e-4,-0.001 0.00111,0.002 0.00225,0.003 0.027262,0.009 0.088125,0.0219 0.1088564,0.0267 0.098476,0.0217 0.1970143,0.0431 0.295797,0.0633 0.052939,0.0109 0.093219,0.0182 0.1442551,0.0294 0.010557,0.002 0.021037,0.005 0.031556,0.007 -0.00569,0.007 -0.00972,0.0155 -0.017079,0.0205 -0.00321,0.002 -0.00775,-5.3e-4 -0.011607,-0.001 -0.00808,-7.9e-4 -0.01614,-0.002 -0.024207,-0.003 -0.02852,-0.004 -0.057039,-0.007 -0.085413,-0.012 -0.02577,-0.004 -0.023506,0.002 -0.00313,-0.0225 1.82e-4,-2.2e-4 1.611e-4,5.2e-4 4.233e-4,7.9e-4 0.00383,0.001 0.00775,0.002 0.011634,0.002 0.00712,10e-4 0.014232,0.003 0.021368,0.004 0.010049,0.002 0.020122,0.003 0.030182,0.005 0.065098,0.0103 0.1301575,0.021 0.1950312,0.0326 -0.00645,0.006 -0.011726,0.0143 -0.019336,0.0193 -0.00254,0.002 -0.00605,-2.6e-4 -0.00906,-5.3e-4 -0.00689,-5.3e-4 -0.013756,-0.002 -0.020637,-0.002 -0.039215,-0.004 -0.078484,-0.007 -0.1176846,-0.0116 -0.046443,-0.005 -0.092831,-0.01 -0.139188,-0.0156 -0.019431,-0.002 -0.03892,-0.004 -0.058302,-0.007 -0.00378,-5.3e-4 -0.0075,-0.001 -0.01125,-0.002 -0.014229,-0.01 -0.010673,-0.005 0.021352,-0.0196 0.00164,-8e-4 0.00363,-6e-5 0.00544,-2e-5 0.00597,1.4e-4 0.02086,7.9e-4 0.025598,0.001 0.0063,2.6e-4 0.012594,5.3e-4 0.018889,7.9e-4 0.019545,8e-4 0.039091,0.002 0.058636,0.002 0.00426,1.6e-4 0.00851,5.3e-4 0.012769,5.3e-4 0.00287,1e-5 0.010578,-0.002 0.00861,-2.7e-4 -0.00603,0.006 -0.014647,0.01 -0.021974,0.0145 6.615e-4,2.7e-4 0.0014,0.002 0.00198,0.001 5.291e-4,-5.3e-4 -0.00108,-0.001 -0.00169,-0.001 -0.00124,-7.9e-4 -0.00257,-0.001 -0.00387,-0.002 -0.00644,-0.003 -0.01302,-0.006 -0.019555,-0.009 -0.014078,-0.006 -0.028289,-0.0134 -0.043907,-0.0139 -0.00204,1.6e-4 -0.00408,1.2e-4 -0.00609,5.3e-4 -0.00486,8e-4 -0.00769,0.002 -0.012242,0.004 -0.00595,0.002 -0.011959,0.005 -0.017616,0.008 0,0 0.02385,-0.0193 0.02385,-0.0193 z"
       inkscape:connector-curvature="0" />
    <path
       style="opacity:1;fill:#ff5959;fill-opacity:1;stroke-width:0;stroke-miterlimit:4;stroke-dasharray:none"
       id="path6153"
       d="m 1.8868341,247.02525 c -0.00265,-2.2e-4 -0.012036,-0.001 -0.013496,-0.001 -0.011525,-0.002 -0.022953,-0.004 -0.034458,-0.006 -0.021259,-0.003 -0.029729,-0.004 -0.05156,-0.008 -0.061757,-0.009 -0.1239268,-0.0134 -0.1861574,-0.0167 -0.016769,-5.3e-4 -0.033611,-0.002 -0.050404,-0.001 -0.00204,9e-5 -0.00778,0.002 -0.00612,5.3e-4 0.023048,-0.0167 0.016962,-0.0165 0.031522,-0.014 0.00437,8e-4 0.00872,0.002 0.013113,0.003 0.027344,0.005 0.055052,0.008 0.082571,0.011 0.057538,0.007 0.0291,0.004 0.090768,0.0108 0.1103079,0.0127 0.2209956,0.0222 0.3319018,0.0276 0.00611,1.6e-4 0.035288,0.001 0.044478,5.3e-4 0.00201,-1.8e-4 0.00756,-0.003 0.00577,-0.002 -0.00992,0.005 -0.019304,0.0123 -0.030255,0.0146 -0.00564,0.001 -0.011089,-0.003 -0.016703,-0.005 -0.01034,-0.002 -0.020765,-0.005 -0.031147,-0.007 -0.1478788,-0.03 -0.2977271,-0.0485 -0.4475369,-0.0656 -0.05327,-0.006 -0.1065874,-0.0113 -0.1600229,-0.0154 -0.00773,-5.3e-4 -0.033831,-0.003 -0.044238,-0.002 -0.00291,1.6e-4 -0.00571,0.001 -0.00857,0.002 0.00841,-0.004 0.016147,-0.0103 0.025217,-0.013 0.0027,-8e-4 0.00515,0.002 0.00778,0.003 0.00555,0.002 0.011097,0.004 0.016759,0.006 0.029885,0.009 0.060785,0.0151 0.091325,0.0217 0.078758,0.0164 0.1580898,0.0298 0.2376225,0.0419 -0.03146,0.0147 0.032015,-0.003 0.025173,0.002 -0.00897,0.006 -0.018494,0.0129 -0.029154,0.0158 -0.00473,0.001 -0.00943,-0.003 -0.014179,-0.004 -0.020836,-0.005 -0.041295,-0.01 -0.062332,-0.0144 -0.096303,-0.0201 -0.1935205,-0.0355 -0.2910232,-0.0485 -0.00591,-5.3e-4 -0.026934,-0.003 -0.035441,-0.003 -0.00143,1.6e-4 -0.00507,0.003 -0.0038,0.002 0.00953,-0.005 0.018232,-0.0119 0.028548,-0.0147 0.00358,-10e-4 0.00692,0.003 0.010467,0.004 0.00678,0.002 0.013653,0.004 0.020481,0.006 0.063503,0.0156 0.1279641,0.027 0.1925225,0.0373 0.00241,2.7e-4 0.02873,0.004 0.034218,0.005 0.00217,5.3e-4 0.00801,-9e-5 0.00646,0.002 -0.00745,0.008 -0.016558,0.0137 -0.026043,0.0186 -0.00241,0.001 -0.00536,-7.9e-4 -0.00805,-10e-4 -0.00479,-5.3e-4 -0.0096,-5.3e-4 -0.014406,-0.001 -0.037089,-0.002 -0.074242,-0.003 -0.1113854,-0.003 0.010512,-0.008 -0.019,0.005 -0.014774,0.002 0.00809,-0.005 0.01664,-0.009 0.025067,-0.0138 4.233e-4,-2.3e-4 9.525e-4,-2.7e-4 0.00146,-2.6e-4 0.00254,5.3e-4 0.00501,0.001 0.00752,0.002 0.00393,7.9e-4 0.00787,0.002 0.0118,0.002 0.014481,0.002 0.029086,0.004 0.043696,0.005 0.00306,2.1e-4 0.01555,0.001 0.019767,7.9e-4 0.00122,-8e-5 0.00235,-5.3e-4 0.00355,-7.9e-4 -0.00886,0.005 -0.017201,0.0118 -0.026563,0.0163 -0.00153,7.9e-4 -0.00333,-8e-4 -0.005,-0.001 -0.00307,-7.9e-4 -0.00613,-10e-4 -0.0092,-0.002 -0.016999,-0.004 -0.034065,-0.007 -0.051212,-0.01 -0.028421,-0.004 -0.05709,-0.007 -0.085815,-0.008 -0.018328,-7.9e-4 -0.014081,5.3e-4 0.018251,-0.0183 8.995e-4,-5.3e-4 0.00209,6e-5 0.00312,7e-5 0.00119,3e-5 0.00241,3e-5 0.0036,5e-5 0.015325,2.6e-4 0.013068,-0.005 -0.019741,0.0176 0,0 0.025342,-0.0176 0.025342,-0.0176 v 0 c -0.024037,0.018 -0.015052,0.0182 -0.03021,0.0179 -0.00122,0 -0.00243,0 -0.00365,1e-5 -0.00108,2e-5 -0.00406,8e-4 -0.00325,8e-5 0.021349,-0.0188 0.014936,-0.0186 0.030691,-0.0171 0.028219,0.002 0.05642,0.005 0.084411,0.01 0.017547,0.003 0.035094,0.006 0.052602,0.009 0.00328,5.3e-4 0.00657,0.001 0.00982,0.002 0.00209,5.3e-4 0.00762,1.5e-4 0.00621,0.002 -0.00659,0.008 -0.015859,0.0123 -0.023786,0.0184 -0.00742,9e-5 -0.014896,-7.9e-4 -0.02227,-0.002 -0.014724,-0.001 -0.029454,-0.003 -0.044097,-0.005 -0.00338,-5.3e-4 -0.017103,-0.002 -0.021254,-0.005 -0.00164,-7.9e-4 -0.00527,-0.003 -0.0039,-0.004 0.017555,-0.0156 0.023146,-0.0176 0.041162,-0.0176 0.037092,5.3e-4 0.074157,0.002 0.1112449,0.003 0.0051,1e-4 0.010189,2.6e-4 0.015285,2.6e-4 0.00273,-3e-5 0.00995,-0.003 0.00816,-5.3e-4 -0.00631,0.007 -0.014478,0.0128 -0.022879,0.0173 -0.00167,7.9e-4 -0.00351,-0.001 -0.00534,-0.002 -0.00858,-0.002 -0.024789,-0.005 -0.032312,-0.007 -0.06455,-0.0118 -0.1291447,-0.0234 -0.1933623,-0.037 -0.00733,-0.002 -0.014708,-0.003 -0.021976,-0.005 -0.00404,-0.001 -0.013399,0 -0.011922,-0.004 0.00856,-0.0227 0.0201,-0.0214 0.036144,-0.0191 0.00703,0.001 0.014028,0.002 0.021042,0.003 0.042063,0.007 0.084108,0.0146 0.1262173,0.0216 0.054724,0.009 0.1095465,0.0175 0.1641076,0.0276 0.021826,0.004 0.043663,0.008 0.065475,0.0123 0.00526,0.001 0.016849,-0.002 0.015756,0.003 -0.00522,0.025 -0.01479,0.0196 -0.025868,0.0173 -0.00554,-0.001 -0.011094,-0.002 -0.016642,-0.003 -0.078778,-0.0145 -0.1578327,-0.0275 -0.236474,-0.0428 -0.031447,-0.006 -0.063176,-0.0117 -0.094134,-0.0201 -0.00608,-0.002 -0.012218,-0.003 -0.018079,-0.006 -0.00379,-0.002 -0.012914,-0.002 -0.010737,-0.006 0.00565,-0.009 0.017312,-0.0122 0.025966,-0.0182 0.00259,-1.6e-4 0.00519,-5.3e-4 0.00779,-5.3e-4 0.0093,2.6e-4 0.035047,0.003 0.041385,0.004 0.051476,0.006 0.1028809,0.0129 0.1543106,0.0195 0.1497401,0.0189 0.00872,0.001 0.169087,0.0213 0.030047,0.004 0.060119,0.007 0.090138,0.0114 0.065086,0.009 0.1299966,0.0186 0.1949079,0.0285 0.011062,0.002 0.022154,0.004 0.033185,0.006 0.00625,0.001 0.018688,-0.002 0.01865,0.004 -1.413e-4,0.0251 -0.02692,0.0203 -0.039647,0.0195 -0.00856,-5.3e-4 -0.017108,-10e-4 -0.025665,-0.002 -0.1101611,-0.009 -0.2201669,-0.0193 -0.3302624,-0.0289 -0.042691,-0.004 -0.085357,-0.009 -0.1280401,-0.0132 -0.017859,-0.002 -0.032643,-0.003 -0.050154,-0.005 -0.00476,-5.3e-4 -0.00948,-0.002 -0.014221,-0.002 -0.016555,-0.006 -0.014004,-0.003 0.017346,-0.0206 0.00161,-8e-4 0.00368,0 0.00551,6e-5 0.00692,2.2e-4 0.020982,0.001 0.026926,0.001 0.00715,5.3e-4 0.014303,0.001 0.021452,0.001 0.062161,0.004 0.1243301,0.009 0.1861537,0.017 0.017521,0.002 0.03504,0.005 0.052563,0.007 0.00649,8e-4 0.027972,0.004 0.035922,0.004 0.0045,5.3e-4 0.00957,5.3e-4 0.014161,5.3e-4 0,0 -0.024723,0.018 -0.024723,0.018 z"
       inkscape:connector-curvature="0" />
    <path
       style="opacity:1;fill:#ff5959;fill-opacity:1;stroke-width:0;stroke-miterlimit:4;stroke-dasharray:none"
       id="path6155"
       d="m 1.4390482,247.00367 c -0.00822,0.004 -0.017015,0.007 -0.025971,0.009 -0.00878,0.002 -0.017719,0.002 -0.02665,0.003 -0.011782,-1.5e-4 -0.023543,-0.001 -0.035283,-0.002 -0.014634,-7.9e-4 -0.029226,-0.002 -0.043766,-0.004 -0.00801,-0.002 -0.016245,-0.001 -0.024273,-0.002 -0.00536,-10e-4 -0.010803,-10e-4 -0.016251,-0.002 -0.0078,-2.1e-4 -0.015597,-2e-4 -0.023397,-2e-4 -0.00632,1e-5 -0.012647,8e-5 -0.018971,8e-5 -0.00655,2.7e-4 -0.013025,-5.3e-4 -0.019534,-0.001 -0.00727,-7.9e-4 -0.014573,-7.9e-4 -0.021871,-0.001 -0.00768,-9e-5 -0.015354,-4e-5 -0.023032,-3e-5 -0.00876,-7.9e-4 -0.017462,-0.002 -0.026212,-0.003 -0.00875,-0.001 -0.017505,-0.002 -0.026323,-0.003 -0.010057,-5.2e-4 -0.02013,-5.2e-4 -0.030196,-5.2e-4 -0.00936,2e-5 -0.018722,8e-5 -0.028083,1.5e-4 -0.00805,5e-5 -0.016089,-4e-5 -0.024135,-9e-5 -0.010747,-5e-5 -0.021492,-2e-5 -0.032239,6e-5 -0.00724,1.1e-4 -0.014489,4e-5 -0.021733,-5e-5 -0.014198,-1.1e-4 -0.028394,-1e-4 -0.042591,-1.3e-4 -0.013383,-3e-5 -0.026766,4e-5 -0.040149,1.5e-4 -0.00684,9e-5 -0.013687,1e-4 -0.020529,5e-5 -0.00821,-5e-5 -0.016415,-3e-5 -0.024625,1e-5 -0.00585,-5.3e-4 -0.011449,7.9e-4 -0.017087,0.002 -0.00246,5.2e-4 -0.00503,0.001 -0.00731,0.002 -6.086e-4,2.7e-4 -0.00228,0.001 -0.00169,0.001 0.024902,-0.0141 0.032149,-0.0204 0.02368,-0.0132 -2.472e-4,2.6e-4 -0.00101,7.9e-4 -5.557e-4,0.002 0.00212,0.003 0.00714,0.004 0.010163,0.005 0.0067,0.002 0.013782,0.004 0.020883,0.003 0.00784,-0.002 0.015359,-0.004 0.022974,-0.007 0.00861,-0.003 0.016878,-0.006 0.025294,-0.009 0.00648,-0.003 0.013668,-0.004 0.020778,-0.004 0.011102,-2.6e-4 0.022209,-2.6e-4 0.033316,-2.6e-4 0.00884,5.2e-4 0.017603,0.002 0.026387,0.003 0.011277,0.001 0.022561,0.003 0.033741,0.005 0.0072,10e-4 0.014359,0.003 0.021648,0.003 0.00846,2.6e-4 0.016857,0.001 0.025281,0.002 0.00688,5.3e-4 0.013779,7.9e-4 0.020682,0.001 0.00701,9e-5 0.014023,9e-5 0.021034,7e-5 0.00657,-7e-5 0.013147,-2e-5 0.019719,0 0.00683,3e-5 0.013658,-2e-5 0.020487,-6e-5 0.00212,2.7e-4 0.00849,-7.9e-4 0.01,5.3e-4 3.969e-4,2.7e-4 5.821e-4,8e-4 8.731e-4,10e-4 -0.0087,0.006 -0.017134,0.0122 -0.026101,0.0178 -7.144e-4,5.2e-4 -0.00167,-1.8e-4 -0.00249,-1.9e-4 -0.00108,-1e-5 -0.0022,9e-5 -0.00328,1.3e-4 -0.00428,1.6e-4 -0.00856,2.3e-4 -0.01284,2.7e-4 -0.00673,4e-5 -0.013523,2.3e-4 -0.020222,-5.3e-4 -0.00385,-5.3e-4 -0.00764,-0.001 -0.011456,-0.002 -0.013047,-0.002 -0.025982,-0.005 -0.039069,-0.006 -0.0072,-0.001 -0.014385,-0.003 -0.021709,-0.003 -0.00837,-5.3e-4 -0.016711,-0.001 -0.02509,-0.002 -0.00747,-2.7e-4 -0.014965,-8e-4 -0.022423,-1.5e-4 -0.00666,8e-4 -0.01334,0.001 -0.02005,0.002 -0.00656,1.9e-4 -0.013115,1.9e-4 -0.019674,2.3e-4 -0.0067,1e-5 -0.013401,-4e-5 -0.020103,-8e-5 -0.00772,-2e-5 -0.015436,1e-5 -0.023154,5e-5 -0.00537,0 -0.01074,3e-5 -0.01611,4e-5 -0.00548,-5.3e-4 -0.010835,7.9e-4 -0.016253,0.001 -0.00633,5.3e-4 -0.012687,5.3e-4 -0.019032,5.3e-4 -0.00514,-1.8e-4 -0.010242,5.3e-4 -0.015245,0.002 -0.00713,10e-4 -0.014137,0.003 -0.021156,0.004 -0.00768,0.002 -0.015497,0.002 -0.023252,0.003 -0.00385,5.3e-4 -0.00773,7.9e-4 -0.011594,0.001 -0.012039,0.001 -0.017947,0.0109 0.022439,-0.0175 0.011446,2.7e-4 0.022892,2.7e-4 0.03434,2.7e-4 0.00964,9e-5 0.019047,-0.002 0.028534,-0.003 0.00744,-7.9e-4 0.014946,-7.9e-4 0.022429,-0.001 0.00792,2e-5 0.015849,-2.6e-4 0.023744,2.7e-4 0.00862,7.9e-4 0.017269,0.001 0.025929,0.002 0.00897,-3e-5 0.017986,5.2e-4 0.026928,-1.7e-4 0.00541,-5.3e-4 0.010829,-0.002 0.01593,-0.003 0.00513,-0.002 0.010491,-0.002 0.015843,-0.002 0.00714,-1.5e-4 0.014282,-3e-5 0.021418,-2.5e-4 1.339e-4,-2e-5 5.027e-4,-1.4e-4 3.969e-4,-6e-5 -0.00873,0.006 -0.017243,0.0125 -0.026289,0.0182 -7.938e-4,5.3e-4 -0.00188,-6e-5 -0.00282,-8e-5 -0.00159,-3e-5 -0.00316,-7e-5 -0.00475,-9e-5 -0.00249,-3e-5 -0.011732,-1.1e-4 -0.013748,-1.3e-4 -0.018725,-2.3e-4 -0.037451,-1.4e-4 -0.056175,3e-5 -0.00901,-8e-5 -0.018238,-6e-5 -0.027131,-0.002 -0.00671,-10e-4 -0.013364,-0.003 -0.020161,-0.003 -0.00797,-8e-4 -0.015986,-8e-4 -0.023987,-8e-4 -0.00487,0 -0.00975,3e-5 -0.014623,5e-5 -0.00482,-5.3e-4 -0.00924,8e-4 -0.013861,0.002 -0.00551,0.001 -0.010851,0.003 -0.016452,0.004 -0.00421,0.001 -0.00856,0.002 -0.012962,0.002 -0.00464,2.6e-4 -0.00929,2.1e-4 -0.013944,2.1e-4 -0.00544,-2e-5 -0.01088,-2e-5 -0.016319,-1e-5 -0.00779,-6e-5 -0.015576,-9e-5 -0.023365,-1.2e-4 -0.00861,-2e-5 -0.017219,3e-5 -0.025829,7e-5 -0.00634,-2e-5 -0.012679,2e-5 -0.019016,4e-5 -0.00438,2.3e-4 -0.00884,-5.3e-4 -0.013158,5.3e-4 -0.00591,7.9e-4 -0.011869,0.001 -0.017825,0.001 -0.00677,1.6e-4 -0.013539,1.6e-4 -0.020309,1.8e-4 -0.0063,-3e-5 -0.012597,0 -0.018894,2e-5 -0.00614,-2.6e-4 -0.01216,0.001 -0.018185,0.002 -0.00783,0.002 -0.015745,0.003 -0.02367,0.005 -0.00304,8e-4 -0.00586,8e-4 -0.00888,9e-5 0,0 0.025027,-0.0177 0.025027,-0.0177 v 0 c 0.00274,1.3e-4 0.00542,-1.1e-4 0.0081,-7.9e-4 0.00792,-0.001 0.015796,-0.003 0.023678,-0.005 0.00618,-0.001 0.012369,-0.002 0.018661,-0.002 0.00627,3e-5 0.012536,8e-5 0.018804,4e-5 0.00675,0 0.013507,-10e-6 0.020254,-2.7e-4 0.00596,-2.6e-4 0.011914,-7.9e-4 0.017822,-0.002 0.00443,-2.1e-4 0.00887,-5e-5 0.013309,-8e-5 0.0063,2e-5 0.012597,7e-5 0.018897,4e-5 0.00855,4e-5 0.017095,9e-5 0.025643,7e-5 0.0079,-3e-5 0.01579,-6e-5 0.023686,-1.1e-4 0.00543,2e-5 0.010851,4e-5 0.016277,3e-5 0.00462,-3e-5 0.00925,-6e-5 0.013846,-5.3e-4 0.00433,-5.3e-4 0.00854,-0.002 0.012793,-0.003 0.00548,-0.001 0.010798,-0.003 0.016269,-0.004 0.00477,-10e-4 0.00949,-0.002 0.014396,-10e-4 0.00483,-1e-5 0.00967,-1e-5 0.014502,9e-5 0.00802,1.8e-4 0.01606,5.3e-4 0.024051,10e-4 0.00685,8e-4 0.013613,0.002 0.020405,0.003 0.00868,0.001 0.017492,0.002 0.026263,0.002 0.018706,1.6e-4 0.037414,2.5e-4 0.05612,1e-5 0.00637,-6e-5 0.01275,-1e-4 0.019124,-2.4e-4 0.014396,-2.7e-4 -0.00943,0.007 -0.020812,0.018 -0.00705,-2.3e-4 -0.014124,-7e-5 -0.021167,2.6e-4 -0.00527,5.3e-4 -0.010478,0.001 -0.015478,0.003 -0.00531,0.001 -0.010671,0.003 -0.016185,0.003 -0.00899,2.7e-4 -0.017981,-5e-5 -0.026968,-1.6e-4 -0.0087,-2.6e-4 -0.01738,-7.9e-4 -0.026054,-0.002 -0.00788,-2.6e-4 -0.015766,-1.1e-4 -0.023651,-1.1e-4 -0.00743,1.2e-4 -0.014885,2.7e-4 -0.022251,10e-4 -0.00938,0.001 -0.018778,0.003 -0.028304,0.003 -0.011803,-2e-5 -0.023611,1.5e-4 -0.035411,4e-5 0.00805,-0.006 0.015999,-0.0123 0.024151,-0.0183 2.165e-4,-1.6e-4 5.292e-4,5e-5 7.938e-4,3e-5 7.673e-4,-2e-5 0.00153,-9e-5 0.0023,-1.4e-4 0.00382,-2.7e-4 0.00764,-5.3e-4 0.011438,-0.001 0.00772,-8e-4 0.015515,-0.001 0.023101,-0.003 0.00707,-0.002 0.014187,-0.003 0.021325,-0.004 0.00515,-8e-4 0.010303,-0.002 0.015552,-10e-4 0.0063,-8e-5 0.012623,-1.8e-4 0.018891,-0.001 0.00549,-8e-4 0.010964,-0.001 0.016513,-0.001 0.00533,1e-5 0.010668,3e-5 0.016005,3e-5 0.00767,5e-5 0.015343,8e-5 0.023013,6e-5 0.00675,-3e-5 0.01351,-6e-5 0.020267,-5e-5 0.00651,0 0.013031,-1e-5 0.019542,-2.7e-4 0.00666,-2.6e-4 0.013295,-0.001 0.01995,-0.002 0.00755,-2.6e-4 0.015118,-2e-5 0.022659,5.3e-4 0.0084,5.3e-4 0.016775,0.002 0.025188,0.002 0.00725,7.9e-4 0.014322,0.002 0.021468,0.004 0.013049,0.002 0.026006,0.004 0.039071,0.006 0.010472,0.002 0.020952,0.003 0.031572,0.002 0.00525,-1.3e-4 0.011036,2e-4 0.016203,-0.001 7.143e-4,-1.5e-4 0.00138,-5.2e-4 0.00204,-7.9e-4 -0.00825,0.006 -0.016502,0.0114 -0.024752,0.0171 1.55e-4,2.1e-4 5.292e-4,2.6e-4 4.762e-4,5.3e-4 -5.82e-5,2.1e-4 -4.233e-4,4e-5 -6.614e-4,4e-5 -0.00288,2e-5 -0.00577,-9e-5 -0.00865,-5e-5 -0.00678,-3e-5 -0.013555,-8e-5 -0.020333,-5e-5 -0.00659,2e-5 -0.013176,8e-5 -0.019762,3e-5 -0.00705,-2e-5 -0.014097,2e-5 -0.021145,-7e-5 -0.0069,-1.9e-4 -0.01379,-5.3e-4 -0.020661,-0.001 -0.00841,-8e-4 -0.016825,-0.001 -0.025257,-0.002 -0.00734,-8e-4 -0.014597,-0.002 -0.021818,-0.004 -0.01106,-0.002 -0.022251,-0.004 -0.033444,-0.005 -0.00875,-0.001 -0.017468,-0.003 -0.026276,-0.003 -0.011078,-7e-5 -0.022167,-1.2e-4 -0.033228,5.2e-4 -0.00707,5.3e-4 -0.013928,0.002 -0.020405,0.005 -0.00833,0.003 -0.016698,0.006 -0.02518,0.009 -0.00776,0.003 -0.01556,0.006 -0.023768,0.006 -0.00735,-2.6e-4 -0.014597,-0.002 -0.021474,-0.005 -0.00449,-0.002 -0.011803,-0.004 -0.01289,-0.01 -1.099e-4,-5.3e-4 2.029e-4,-0.001 3.175e-4,-0.002 0.00658,-0.0124 0.024342,-0.0175 0.037851,-0.0207 0.00575,-0.001 0.011507,-0.002 0.017407,-0.002 0.0082,4e-5 0.016407,5e-5 0.024612,0 0.0068,-4e-5 0.013592,-4e-5 0.020389,5e-5 0.013242,1.2e-4 0.026484,1.9e-4 0.039727,1.6e-4 0.014319,-3e-5 0.02864,-2e-5 0.04296,-1.4e-4 0.00729,-8e-5 0.014573,-1.5e-4 0.021862,-4e-5 0.010689,8e-5 0.021381,1.1e-4 0.032072,6e-5 0.00813,-5e-5 0.016264,-1.4e-4 0.024395,-1.1e-4 0.00924,5e-5 0.018486,8e-5 0.027731,1.2e-4 0.010221,0 0.02046,-1.7e-4 0.030669,5.3e-4 0.00874,7.9e-4 0.017391,0.002 0.026099,0.003 0.00877,7.9e-4 0.017523,0.002 0.026331,0.002 0.00765,1e-5 0.015306,5e-5 0.02296,1.4e-4 0.00737,1e-4 0.014732,2.6e-4 0.022061,0.001 0.00649,5.3e-4 0.012981,0.001 0.019508,7.9e-4 0.00626,-1e-5 0.012525,5e-5 0.018788,6e-5 0.00785,0 0.015711,-10e-6 0.023561,2.3e-4 0.00554,2.3e-4 0.011028,8e-4 0.016481,0.002 0.00795,7.9e-4 0.01596,10e-4 0.023866,0.003 0.014422,0.002 0.028932,0.003 0.043465,0.004 0.011832,7.9e-4 0.023709,0.002 0.035587,0.002 0.00875,-2.6e-4 0.017507,-0.001 0.026072,-0.003 0.00904,-0.002 0.017698,-0.005 0.026196,-0.009 0,0 -0.02418,0.0188 -0.02418,0.0188 z"
       inkscape:connector-curvature="0" />
    <path
       style="opacity:1;fill:#ff5959;fill-opacity:1;stroke-width:0;stroke-miterlimit:4;stroke-dasharray:none"
       id="path6157"
       d="m 0.671274,247.02305 c -0.014092,5.3e-4 -0.028207,5.3e-4 -0.042309,5.3e-4 -0.016849,-1e-5 -0.033714,-5.3e-4 -0.050435,-0.003 -0.00691,-7.9e-4 -0.01365,-0.003 -0.020542,-0.003 -0.00468,-2e-4 -0.00921,-8e-4 -0.0137,-0.002 -0.013711,-0.006 0.01392,-0.0151 0.016502,-0.0166 0.00561,-10e-4 0.011311,-10e-4 0.016999,-0.002 0.00396,-1.8e-4 0.00786,-0.001 0.011816,-0.001 0.00326,-2.6e-4 0.00652,-2.6e-4 0.00979,-2.6e-4 0.00378,-1e-5 0.00757,6e-5 0.011353,-1e-5 -0.00201,8e-4 0.00132,-2.4e-4 0.00103,-5e-5 -0.021796,0.0145 -0.012853,0.0132 -0.027975,0.012 -0.00645,-5.2e-4 -0.012719,-0.002 -0.019002,-0.004 -0.00418,-0.001 -0.00848,-0.001 -0.012758,-0.001 -0.00409,-2.7e-4 -0.00811,5.3e-4 -0.012155,0.001 -0.00424,8e-5 -0.00838,5.3e-4 -0.01256,0.001 -0.00312,5.3e-4 -0.00628,5.3e-4 -0.00944,7.9e-4 -0.00331,2e-5 -0.00663,2e-5 -0.00994,2e-5 -0.00375,5.3e-4 -0.00745,0.001 -0.011136,0.002 -0.00437,8e-4 -0.00883,8e-4 -0.013256,10e-4 -0.00477,9e-5 -0.00954,7e-5 -0.014303,6e-5 -0.00488,-1.3e-4 -0.00978,2.6e-4 -0.014634,-2.4e-4 -0.00389,-5.3e-4 -0.00781,-8e-4 -0.011742,-10e-4 -0.00324,-1.2e-4 -0.00647,-1.1e-4 -0.00971,-1.1e-4 -0.00365,-1.6e-4 -0.00727,-8e-4 -0.010919,-0.001 -0.00416,-0.001 -0.00844,-0.001 -0.012711,-0.002 -0.00591,-2.5e-4 -0.011835,-2.5e-4 -0.017754,-2.3e-4 -0.00487,4e-5 -0.00975,0 -0.014623,1e-5 -0.00594,-2e-5 -0.011872,-2e-5 -0.017809,-1e-5 -0.00449,3e-5 -0.00897,7e-5 -0.013459,3e-5 -0.00644,-1.9e-4 -0.012861,5.2e-4 -0.019283,7.9e-4 -0.00607,2.6e-4 -0.01215,5.3e-4 -0.01823,5.3e-4 -0.00856,-1.6e-4 -0.017111,5.3e-4 -0.025659,7.9e-4 -0.00658,5.3e-4 -0.013126,0.001 -0.019706,0.002 -0.00381,5.3e-4 -0.00752,6e-5 -0.011282,-5.2e-4 -0.00198,-2.7e-4 -0.00101,-1.6e-4 -0.00296,-2.7e-4 0,0 0.017695,-0.0125 0.017695,-0.0125 v 0 c 0.00198,2.6e-4 9.79e-4,1.3e-4 0.00298,5.3e-4 0.00363,5.3e-4 0.00725,5.3e-4 0.010914,1.9e-4 0.00647,-5.3e-4 0.01292,-0.001 0.019397,-0.002 0.00865,-2.6e-4 0.01729,-10e-4 0.02595,-10e-4 0.00603,-9e-5 0.012068,-2.2e-4 0.01809,-5.3e-4 0.0065,-5.3e-4 0.012988,-10e-4 0.019508,-8e-4 0.00447,-3e-5 0.00893,0 0.013401,2e-5 0.00594,2e-5 0.011888,1e-5 0.01783,-1e-5 0.00488,0 0.00976,-6e-5 0.014637,-1e-5 0.00595,6e-5 0.011893,7e-5 0.017833,2.7e-4 0.00432,2.6e-4 0.0086,7.9e-4 0.012856,0.002 0.00361,2.7e-4 0.0072,0.001 0.010843,0.001 0.00324,2e-5 0.00649,5e-5 0.00973,2.4e-4 0.00393,2.5e-4 0.00783,7.9e-4 0.011734,0.001 0.00482,2.6e-4 0.00965,5e-5 0.014481,1.3e-4 0.00477,-1e-5 0.00954,0 0.014301,-1.5e-4 0.00438,-1.7e-4 0.00879,-5.3e-4 0.013084,-0.001 0.00377,-8e-4 0.00761,-10e-4 0.011435,-10e-4 0.0033,0 0.00661,2e-5 0.00992,-9e-5 0.00309,-1.2e-4 0.00618,-2.6e-4 0.00923,-7.9e-4 0.00418,-5.3e-4 0.00838,-8e-4 0.012592,-10e-4 0.0041,-5.3e-4 0.00818,-0.001 0.012319,-7.9e-4 0.00436,1.9e-4 0.00874,5.3e-4 0.01297,0.002 0.00615,0.002 0.012338,0.003 0.018693,0.004 0.00206,1.5e-4 0.00414,2.6e-4 0.00621,5.3e-4 8.202e-4,4e-5 0.00308,-5.3e-4 0.00249,8e-5 -0.016219,0.0156 -0.0091,0.0131 -0.016693,0.0127 -0.00377,-8e-5 -0.00754,-1e-5 -0.011308,0 -0.00322,6e-5 -0.00645,1.2e-4 -0.00966,5.3e-4 -0.00392,5.3e-4 -0.00782,0.001 -0.011774,0.001 -0.00559,2.7e-4 -0.01134,5.3e-4 -0.016661,0.002 0.00572,-0.003 0.011581,-0.007 0.017161,-0.0102 3.175e-4,-2.1e-4 -0.00143,-2.7e-4 -0.00143,-2.7e-4 1.01e-5,8e-4 0.00233,0.001 0.00259,0.001 0.00439,0.001 0.00888,0.002 0.013401,0.002 0.00675,0.001 0.013383,0.003 0.020153,0.004 0.016431,0.002 0.033031,0.003 0.04962,0.003 0.014454,-1.9e-4 0.028974,-1.1e-4 0.043361,-0.002 0,0 -0.017391,0.013 -0.017391,0.013 z"
       inkscape:connector-curvature="0" />
    <path
       style="opacity:1;fill:#ff5959;fill-opacity:1;stroke-width:0;stroke-miterlimit:4;stroke-dasharray:none"
       id="path6159"
       d="m 0.2894458,247.01278 c -0.00842,5.3e-4 -0.016849,7.9e-4 -0.025278,0.001 -0.00688,1.7e-4 -0.013772,1.9e-4 -0.020656,2.1e-4 -0.00479,2.6e-4 -0.00951,-1.2e-4 -0.01425,-7.9e-4 -0.00277,-8e-4 -0.00555,-0.002 -0.00844,-0.002 -0.00464,-0.001 -0.00937,-0.002 -0.014076,-0.002 -0.00722,-0.001 -0.01455,-0.002 -0.02173,-0.003 -0.00601,-0.001 -0.01193,-0.002 -0.017894,-0.004 -0.00842,-0.002 -0.016883,-0.003 -0.025358,-0.004 -0.00429,-5.3e-4 -0.00851,-0.001 -0.01275,-0.002 -0.00288,-5.3e-4 -0.00581,-5.3e-4 -0.00873,-5.3e-4 -0.00869,-1e-5 -0.00631,0.002 0.017738,-0.0128 6.35e-4,-2.7e-4 0.00624,5.3e-4 0.00707,5.3e-4 0.00565,5.3e-4 0.011311,7.9e-4 0.016978,7.9e-4 0.00369,6e-5 0.00739,6e-5 0.011083,5e-5 0.00323,0 0.00645,-2e-5 0.00968,-1e-5 0.00475,5.3e-4 0.00944,0.001 0.014169,0.002 0.00462,2.6e-4 0.00918,0.001 0.013766,0.002 0.00353,2.7e-4 0.00705,0.001 0.010472,0.002 0.00438,0.001 0.00881,0.002 0.013345,0.003 0.00464,1.5e-4 0.00922,8e-4 0.013822,10e-4 0.00383,5.3e-4 0.00768,5.3e-4 0.011533,5.3e-4 0.00306,4e-5 0.00612,2e-5 0.00918,3e-5 0.00424,2e-5 0.00849,2e-5 0.012732,2e-5 0.00175,1.9e-4 0.00793,-7.9e-4 0.00866,0.001 1.955e-4,5.3e-4 1.603e-4,0.001 2.405e-4,0.002 -0.00658,0.004 -0.013065,0.008 -0.019738,0.0112 -5.028e-4,2.6e-4 -0.00111,1.3e-4 -0.00167,2.4e-4 -0.00302,5.3e-4 -0.00595,0.001 -0.00902,0.002 -0.00646,5.2e-4 -0.012957,5.2e-4 -0.019436,5.2e-4 -0.00955,-3e-5 -0.019103,-5e-5 -0.028654,-2e-5 -0.00572,-3e-5 -0.011419,2.6e-4 -0.017095,-5.3e-4 -0.00379,-5.3e-4 -0.00757,-0.001 -0.011324,-0.002 -0.00458,-7.9e-4 -0.00911,-0.002 -0.013674,-0.002 -0.00408,-5.3e-4 -0.00822,-7.9e-4 -0.012337,-7.9e-4 -0.00336,-3e-5 -0.00673,-2e-5 -0.010086,-1e-5 -0.00333,-8e-5 -0.00667,2.5e-4 -0.00997,-2.5e-4 -0.00413,-8e-4 -0.00833,-0.001 -0.012517,-0.001 -0.00355,-1.2e-4 -0.00711,-1.1e-4 -0.010663,-1.1e-4 -0.00295,1e-5 -0.00591,1e-5 -0.00886,1e-5 -0.00436,0 -0.00872,-5e-5 -0.013078,-8e-5 -0.00704,-7e-5 -0.014079,-2e-5 -0.021116,3e-5 -0.00372,3e-5 -0.00745,5e-5 -0.011171,5e-5 -0.00281,-2.6e-4 -0.00525,2.7e-4 -0.00795,8e-4 -0.00169,5.3e-4 -0.00353,2.2e-4 -0.00525,5.3e-4 -7.938e-4,1.3e-4 -0.00151,5.3e-4 -0.00228,7.9e-4 -0.00257,5.3e-4 -0.00523,7.9e-4 -0.00787,7.9e-4 -0.0023,0.001 -0.0049,8e-4 -0.00718,0.002 -0.00246,8e-4 -0.00507,10e-4 -0.00767,10e-4 -0.00296,9e-5 -0.00586,-8e-4 -0.0088,-10e-4 -0.0018,-5e-5 -0.00353,-8e-4 -0.00516,-0.001 0,0 0.018034,-0.0121 0.018034,-0.0121 v 0 c 0.00159,5.3e-4 0.00317,8e-4 0.00484,0.001 0.00283,5.3e-4 0.00565,0.001 0.00853,7.9e-4 0.00254,-2.6e-4 0.00502,-7.9e-4 0.00746,-0.002 0.00249,-5.3e-4 0.00492,-0.001 0.00743,-0.001 0.00259,-1.7e-4 0.00515,-5.3e-4 0.00765,-10e-4 0.00251,-5.3e-4 0.0051,-5.3e-4 0.00759,-0.001 0.00271,-5.3e-4 0.00542,-5.3e-4 0.00817,-5.3e-4 0.00367,1e-5 0.00734,2e-5 0.011012,6e-5 0.00702,5e-5 0.014036,1e-4 0.021056,2e-5 0.00443,-3e-5 0.00887,-8e-5 0.013306,-9e-5 0.00295,0 0.0059,-1e-5 0.00885,0 0.00355,2e-5 0.00709,7e-5 0.010631,2.5e-4 0.00423,2.2e-4 0.00846,5.3e-4 0.012652,0.001 0.00328,1.6e-4 0.00656,5e-5 0.00983,8e-5 0.00337,-1e-5 0.00673,-3e-5 0.010099,7e-5 0.00418,1.4e-4 0.00837,2.6e-4 0.012502,0.001 0.00455,7.9e-4 0.0091,0.002 0.013663,0.002 0.00376,7.9e-4 0.00751,10e-4 0.0113,0.002 0.0055,5.3e-4 0.011054,2.7e-4 0.016579,5.3e-4 0.00958,5e-5 0.019156,6e-5 0.028732,-5e-5 0.00649,-9e-5 0.013007,-1e-4 0.019455,-0.001 0.01193,-0.002 0.021267,-0.008 -0.00704,0.008 7.408e-4,8e-4 0.00159,0.001 0.00146,0.002 -2.911e-4,1e-4 -6.086e-4,-1.3e-4 -9.261e-4,-1.6e-4 -0.0022,-2.3e-4 -0.00442,-8e-5 -0.00662,-1.2e-4 -0.00428,10e-6 -0.00855,10e-6 -0.012824,5e-5 -0.00307,1e-5 -0.00614,1e-5 -0.00922,-8e-5 -0.00386,-1.3e-4 -0.00772,-2.6e-4 -0.01156,-7.9e-4 -0.0046,-5.3e-4 -0.00919,-7.9e-4 -0.013806,-0.001 -0.0046,-5.3e-4 -0.00909,-0.002 -0.013589,-0.003 -0.00342,-7.9e-4 -0.00684,-10e-4 -0.010321,-0.002 -0.00455,-8e-4 -0.00912,-0.001 -0.013689,-0.002 -0.00468,-7.9e-4 -0.00937,-0.002 -0.014108,-0.002 -0.00322,2e-5 -0.00645,1e-5 -0.00967,1e-5 -0.00368,-1e-5 -0.00737,-1e-5 -0.011046,-1.6e-4 -0.00567,-2.3e-4 -0.011335,-5.3e-4 -0.016991,-0.001 -0.00225,-1.8e-4 -0.00298,-2.7e-4 -0.00518,-2.7e-4 -6.35e-4,-1e-5 -0.00243,5.3e-4 -0.00193,3e-5 0.015303,-0.0137 0.00946,-0.0131 0.01738,-0.0127 0.00298,1.2e-4 0.00597,2.7e-4 0.0089,8e-4 0.00415,7.9e-4 0.00833,0.001 0.012502,0.002 0.00842,0.002 0.016841,0.003 0.025254,0.005 0.00604,10e-4 0.012083,0.002 0.018121,0.003 0.00712,0.001 0.014311,0.002 0.021497,0.003 0.00482,5.3e-4 0.00963,10e-4 0.014412,0.002 0.00284,5.3e-4 0.00555,0.001 0.00836,0.002 0.00463,5.3e-4 0.00927,8e-4 0.013936,5.3e-4 0.00682,0 0.01365,-1e-5 0.020473,-1.4e-4 0.00851,-1.8e-4 0.017042,-2.6e-4 0.025511,-0.001 0,0 -0.017375,0.0129 -0.017375,0.0129 z"
       inkscape:connector-curvature="0" />
    <path
       style="opacity:1;fill:#ff5959;fill-opacity:1;stroke-width:0;stroke-miterlimit:4;stroke-dasharray:none"
       id="path6161"
       d="m 0.0208784,247.00921 c -0.00311,-5.3e-4 -0.00625,-5.3e-4 -0.00939,-7.9e-4 -0.00209,-7e-5 -0.00346,-0.002 -0.00515,-0.002 -0.00119,-7.9e-4 -0.00222,-0.002 -0.00366,-0.002 -2.495e-4,-5e-5 -5.027e-4,-1e-4 -7.409e-4,-1.5e-4 0,0 0.012674,-0.009 0.012674,-0.009 v 0 c 2.91e-4,1.1e-4 5.821e-4,2e-4 8.467e-4,2.7e-4 0.00138,7.9e-4 0.00251,0.002 0.00379,0.003 0.00146,0.001 0.00278,0.002 0.00464,0.002 0.00318,1.9e-4 0.00635,5.3e-4 0.00951,7.9e-4 0,0 -0.01252,0.009 -0.01252,0.009 z"
       inkscape:connector-curvature="0" />
    <path
       style="fill:none;stroke:#000000;stroke-width:0.2661218px;stroke-linecap:butt;stroke-linejoin:miter;stroke-opacity:1"
       d="m 1.678e-4,247.13434 75.0002112,-0.002 v 0 0"
       id="path6163"
       inkscape:connector-curvature="0" />
    <rect
       style="opacity:1;fill:#00a6a6;fill-opacity:1;stroke-width:0.1;stroke-miterlimit:4;stroke-dasharray:none;stroke:#000000;stroke-opacity:1;stroke-linejoin:bevel"
       id="rect6165"
       width="17"
       height="30"
       x="30.000011"
       y="267" />
  </g>
</svg>
